<?xml version="1.0" encoding="UTF-8"?>
<svg id="Livello_1" data-name="Livello 1" xmlns="http://www.w3.org/2000/svg" width="112.95mm" height="112.95mm" viewBox="0 0 320.16 320.16">
  <defs>
    <style>
      .cls-1 {
        fill: #9c9e9f;
      }

      .cls-2 {
        fill: #1a171b;
      }

      .cls-3 {
        fill: #3e3d40;
      }

      .cls-4 {
        fill: #707173;
      }
    </style>
  </defs>
  <path class="cls-2" d="M114.81,249.14c-1.02,3.67-4.1,5.85-8.29,5.85-5.29-.05-9.28-4.49-9.28-10.31,0-6.2,3.73-10.36,9.28-10.36,4.07,0,6.79,1.8,8.11,5.34h8.63c-1.57-9.78-9.97-13.26-16.74-13.26-8.8,0-18.28,5.72-18.34,18.28.05,12.53,9.48,18.24,18.22,18.24h.12c7.23,0,15.42-3.62,16.9-13.77h-8.61ZM118.63,252.33c-2.18,4.57-6.71,7.3-12.1,7.3h-.1c-3.67,0-7.27-1.41-9.88-3.88-2.94-2.76-4.5-6.6-4.5-11.07,0-9.85,7.28-15,14.48-15,5.2,0,9.53,2.44,11.88,6.7l.36.65h-1.62l-.13-.22c-2.11-3.73-5.83-5.79-10.5-5.79-6.34,0-13.08,4.78-13.08,13.65s6.74,13.55,13.08,13.55c4.87,0,8.57-2.17,10.7-6.29l.12-.24h1.59l-.3.63Z"/>
  <path class="cls-2" d="M148.43,258.38c3.46,0,6.68-1.21,9.08-3.42,2.7-2.48,4.13-6.02,4.13-10.22,0-9.35-6.84-13.61-13.21-13.61s-13.01,4.26-13.01,13.61,6.74,13.64,13.01,13.64M148.52,234.68c6.43,0,9.36,5.21,9.36,10.06s-2.93,10.13-9.36,10.13-9.35-5.25-9.35-10.13,2.92-10.06,9.35-10.06"/>
  <path class="cls-2" d="M148.5,226.19c-8.83,0-18.34,5.8-18.34,18.55s9.51,18.58,18.34,18.58,18.33-5.82,18.33-18.58-9.5-18.55-18.33-18.55M148.52,259.79c-6.99,0-14.5-4.71-14.5-15.05s7.52-15.03,14.52-15.03,14.49,4.7,14.49,15.03-7.52,15.05-14.51,15.05"/>
  <path class="cls-2" d="M187.86,241.52c-3.28-.37-6.22-.94-5.96-3.96.17-2.37,2.91-3.62,5.51-3.62,2.43,0,4.89,1.07,5.06,3.47h8.28c-.03-2.85-.99-5.28-2.91-7.23-2.48-2.51-6.38-3.98-10.71-3.98s-8.2,1.47-10.65,3.98c-1.98,2-2.94,4.52-2.88,7.49.08,6.89,4.07,10.25,12.94,10.9,3.62.2,6.86.62,6.86,3.42,0,1.07-.65,1.97-1.89,2.6-1.05.56-2.46.85-3.99.85-2.77,0-5.79-1.08-5.99-3.45h-8.45c.03,2.82.99,5.25,2.91,7.18,2.59,2.62,6.75,4.15,11.38,4.15,7.21,0,14.49-3.87,14.49-11.3,0-8.99-7.12-9.75-14.01-10.51M187.33,260.17c-4.49,0-8.23-1.89-9.76-4.93l-.34-.63h1.63l.1.2c1.52,2.42,4.7,3.87,8.52,3.87,4.66,0,9.37-2.3,9.37-6.68,0-5.61-4.39-5.93-9.07-6.27l-.57-.03c-5.29-.43-10.05-1.37-10.19-8-.06-1.97.65-3.77,2.03-5.21,1.9-1.93,4.98-3.07,8.23-3.07,4.12,0,7.65,1.82,9.19,4.74l.39.64h-1.68l-.15-.2c-1.41-2.35-4.32-3.75-7.78-3.75-2.81,0-5.43.95-6.99,2.55-1.17,1.17-1.76,2.61-1.76,4.28,0,5.48,3.85,6.2,8.88,6.58,5.12.4,10.93.86,10.93,7.75,0,5.36-5.52,8.17-10.97,8.17"/>
  <path class="cls-2" d="M217.93,254.84v-6.89h12.34v-7.72h-12.34v-5.66h13.42v-7.76h-22.11v35.74h22.58v-7.71h-13.89ZM228.99,259.42h-16.11v-29.48h15.65v1.4h-14.2v12.02h13.16v1.4h-13.16v13.27h14.66v1.4Z"/>
  <path class="cls-2" d="M110.26,192.49v-7.76h-22.07v35.74h8.91v-11.76h11.66v-7.76h-11.66v-8.45h13.17ZM105.93,204.13v1.45h-12.59v12.07h-1.44v-29.74h15.59v1.35h-14.15v14.87h12.59Z"/>
  <path class="cls-2" d="M120.32,211.07h18.26l-9.18-19.67-9.08,19.67ZM125.25,208.09l4.13-9.24,4.25,9.24h-8.38Z"/>
  <path class="cls-2" d="M131.24,184.26h-3.66l-16.23,35.19v1.02h8.64l2.12-4.56h14.64l2.12,4.56h8.64v-1.02l-16.28-35.19ZM141.59,217.65l-2.39-5.13h-19.49l-2.43,5.13h-1.64l13.3-28.8h.87l13.41,28.8h-1.64Z"/>
  <path class="cls-2" d="M185.95,184.62l-14.57,15.88-14.31-15.88h-3.04v35.85h8.96v-16.56l8.04,8.48h.81l8.1-8.48v16.56h8.96v-35.85h-2.94ZM185.13,217.6h-1.4v-22.71l-12.36,12.91-12.15-12.9v22.7h-1.4v-24.92h1.3l12.25,13.06,12.4-13.06h1.35v24.92Z"/>
  <path class="cls-2" d="M222.48,212.88c2.7-2.48,4.13-6.01,4.13-10.22,0-9.35-6.85-13.61-13.21-13.61s-13.01,4.26-13.01,13.61,6.75,13.64,13.01,13.65v.09h0v-.09c3.45,0,6.67-1.22,9.08-3.42M204.14,202.65c0-4.85,2.93-10.06,9.36-10.06s9.36,5.21,9.36,10.06-2.93,10.13-9.36,10.13-9.36-5.25-9.36-10.13"/>
  <path class="cls-2" d="M213.48,184.11c-8.83,0-18.34,5.8-18.34,18.55s9.51,18.59,18.34,18.59,18.34-5.82,18.34-18.59-9.5-18.55-18.34-18.55M213.5,217.7c-6.99,0-14.51-4.71-14.51-15.05s7.53-15.03,14.52-15.03,14.5,4.71,14.5,15.03-7.52,15.05-14.51,15.05"/>
  <path class="cls-2" d="M95.44,287.88h-1.74v-3.35c0-.79-.49-1.34-1.38-1.34h-2.37v4.69h-1.77v-18.36h3.48c1.71,0,3.64,1.01,3.64,3.81v6.01c0,1.06-.26,2.17-1.25,2.83.95.5,1.38,1.35,1.38,2.36v3.35ZM89.96,281.64h1.71c.85,0,1.97-.82,1.97-2.3v-6.01c0-1.41-.79-2.26-1.97-2.26h-1.71v10.57Z"/>
  <path class="cls-2" d="M98.01,284.14v-10.87c0-2.03,1.28-3.91,3.75-3.91,2.26,0,3.64,1.81,3.64,3.91v10.84c0,2.03-1.21,3.97-3.64,3.97s-3.75-1.77-3.75-3.94M99.75,273.27v10.87c0,1.25.66,2.33,2,2.33s1.94-1.04,1.94-2.36v-10.84c0-1.19-.56-2.37-1.94-2.37s-2,1.05-2,2.37"/>
  <polygon class="cls-2" points="116.17 273.79 115.35 279.44 113.94 287.46 112.26 287.46 110.85 279.54 110.1 273.7 110.03 273.7 109.96 279.61 109.63 287.89 108.03 287.89 108.72 269.49 110.65 269.49 112.72 281.05 113.12 284.9 113.54 281.09 115.42 269.49 117.42 269.49 118.11 287.89 116.43 287.89 116.07 279.58 116.24 273.79 116.17 273.79"/>
  <path class="cls-2" d="M125.27,283.05v.03h-2.66l-.75,4.79h-1.71l2.82-18.36h1.87l2.86,18.36h-1.7l-.73-4.83ZM125.04,281.64l-.39-2.73-.72-5.91-.75,5.91-.43,2.73h2.3Z"/>
  <polygon class="cls-2" points="143.13 273.79 142.32 279.44 140.9 287.46 139.23 287.46 137.82 279.54 137.06 273.7 136.99 273.7 136.93 279.61 136.6 287.89 134.99 287.89 135.68 269.49 137.62 269.49 139.69 281.05 140.08 284.9 140.51 281.09 142.38 269.49 144.38 269.49 145.07 287.89 143.4 287.89 143.04 279.58 143.2 273.79 143.13 273.79"/>
  <path class="cls-2" d="M152.23,283.05v.03h-2.66l-.75,4.79h-1.71l2.83-18.36h1.87l2.85,18.36h-1.71l-.72-4.83ZM152,281.64l-.4-2.73-.72-5.91-.76,5.91-.43,2.73h2.3Z"/>
  <path class="cls-2" d="M160.08,280.82l5.19,7.06h-2.07l-2.63-3.38-1.41-2.07-.39.76v4.69h-1.74v-18.36h1.74v5.91l-.17,5.09,2.07-5.06c.82-1.94,1.74-4.04,2.56-5.94h1.81l-4.96,11.3Z"/>
  <polygon class="cls-2" points="168.62 271.04 168.62 281.55 172.53 281.55 172.53 283.09 168.62 283.09 168.62 286.31 173.52 286.31 173.52 287.89 166.88 287.89 166.88 269.53 173.52 269.53 173.52 271.04 168.62 271.04"/>
  <path class="cls-2" d="M183.18,287.88h-1.74v-3.35c0-.79-.49-1.34-1.38-1.34h-2.36v4.69h-1.77v-18.36h3.48c1.71,0,3.65,1.01,3.65,3.81v6.01c0,1.06-.26,2.17-1.25,2.83.95.5,1.38,1.35,1.38,2.36v3.35ZM177.69,281.64h1.71c.85,0,1.97-.82,1.97-2.3v-6.01c0-1.41-.79-2.26-1.97-2.26h-1.71v10.57Z"/>
  <path class="cls-2" d="M185.67,284.11v-1.9h1.74v1.9c-.06,1.28.63,2.43,2,2.43s2-1.05,2-2.4v-1.38c0-.89-.85-1.38-2.07-2.1-2.08-1.22-3.65-2.17-3.68-3.97v-3.41c0-2.2,1.15-3.88,3.55-3.88,2.16,0,3.38,1.61,3.38,3.81v2.53h-1.64v-2.49c0-1.25-.49-2.27-1.74-2.27-1.02,0-1.78.72-1.78,2.3v3.35c.07.95.95,1.58,2.43,2.47,1.58.92,3.25,1.84,3.22,3.58v1.47c0,2.14-1.18,3.94-3.68,3.94-2.17,0-3.77-1.57-3.74-3.97"/>
  <path class="cls-2" d="M203.18,279.18c0,1.97-1.35,3.84-3.68,3.84h-1.93v4.86h-1.78v-18.36h3.71c1.71,0,3.68.98,3.68,3.74v5.91ZM201.5,273.27c0-1.38-.72-2.2-2-2.2h-1.93v10.38h1.93c1.02,0,2-.82,2-2.27v-5.91Z"/>
  <path class="cls-2" d="M210.37,283.05v.03h-2.66l-.76,4.79h-1.71l2.83-18.36h1.87l2.86,18.36h-1.71l-.72-4.83ZM210.14,281.64l-.39-2.73-.72-5.91-.76,5.91-.43,2.73h2.3Z"/>
  <path class="cls-2" d="M214.93,284.07v-10.74c0-2.36,1.48-3.97,3.74-3.97s3.65,1.48,3.65,3.97v1.81h-1.65v-1.81c0-1.45-.65-2.43-1.97-2.43-1.15,0-2.03.82-2.03,2.43v10.74c0,1.41.69,2.4,2.03,2.4s1.94-.78,1.94-2.36v-1.68h1.71v1.68c0,2.13-1.15,3.97-3.65,3.97-2.37,0-3.77-1.61-3.77-4.01"/>
  <polygon class="cls-2" points="226.92 271.04 226.92 281.55 230.83 281.55 230.83 283.09 226.92 283.09 226.92 286.31 231.82 286.31 231.82 287.89 225.18 287.89 225.18 269.53 231.82 269.53 231.82 271.04 226.92 271.04"/>
  <polygon class="cls-1" points="217.84 104.37 217.84 128.76 161.98 151.51 161.98 127.13 217.84 104.37"/>
  <path class="cls-4" d="M217.84,48.42v50.83l-57.86,23.72-57.84-23.72v-50.83l27.71-11.38,30.08,12.35,30.17-12.35,27.74,11.38ZM192.6,81.82c0-6.51-3.5-12.56-9.85-17.05-6.11-4.32-14.2-6.72-22.75-6.72-17.99,0-32.61,10.77-32.61,23.73v.03c0,6.97,3.5,12.56,9.84,17.03,6.11,4.32,14.2,6.71,22.75,6.71,17.99,0,32.62-10.65,32.62-23.74"/>
  <path class="cls-2" d="M222.83,45.23v86.7l-62.84,25.66-62.83-25.66V45.23l32.61-13.31,30.24,12.35,30.22-12.35,32.61,13.31ZM217.84,128.76v-24.38l-55.86,22.76v24.38l55.86-22.75ZM217.84,99.25v-50.83l-27.74-11.38-30.17,12.35-30.08-12.35-27.71,11.38v50.83l57.84,23.72,57.86-23.72ZM157.99,151.51v-24.38l-55.85-22.76v24.38l55.85,22.75Z"/>
  <path class="cls-2" d="M182.75,64.77c6.35,4.49,9.85,10.54,9.85,17.05,0,13.09-14.63,23.74-32.62,23.74-8.56,0-16.65-2.38-22.75-6.71-6.34-4.48-9.84-10.06-9.84-17.03v-.03c0-12.96,14.62-23.73,32.61-23.73,8.56,0,16.65,2.39,22.76,6.72M187.85,81.82c.01-4.92-2.78-9.6-7.85-13.18-5.3-3.77-12.41-5.83-20.01-5.83-15.36,0-27.86,8.52-27.86,19.01-.01,4.41,2.24,8.63,6.36,12.05,5.74-3.68,13.27-5.92,21.5-5.92s15.58,2.11,21.53,5.92c3.95-3.28,6.32-7.48,6.32-12.05M159.99,100.82c6.47,0,12.44-1.52,17.17-4.05-4.89-2.65-10.84-4.09-17.16-4.09s-12.41,1.53-17.15,4.06c4.88,2.64,10.83,4.08,17.13,4.08"/>
  <path class="cls-3" d="M180,68.64c5.07,3.58,7.86,8.26,7.85,13.18,0,4.57-2.37,8.77-6.32,12.05-5.95-3.81-13.52-5.92-21.53-5.92s-15.76,2.24-21.5,5.92c-4.12-3.41-6.37-7.64-6.36-12.05,0-10.49,12.5-19.01,27.86-19.01,7.59,0,14.71,2.06,20.01,5.83"/>
  <polygon class="cls-3" points="157.99 127.13 157.99 151.51 102.14 128.76 102.14 104.37 157.99 127.13"/>
</svg>