<?xml version="1.0" encoding="UTF-8" standalone="no"?>
<!-- Created with Inkscape (http://www.inkscape.org/) -->

<svg
   width="588.01642mm"
   height="300.27737mm"
   viewBox="0 0 588.01642 300.27737"
   version="1.1"
   id="svg1"
   xml:space="preserve"
   xmlns:inkscape="http://www.inkscape.org/namespaces/inkscape"
   xmlns:sodipodi="http://sodipodi.sourceforge.net/DTD/sodipodi-0.dtd"
   xmlns="http://www.w3.org/2000/svg"
   xmlns:svg="http://www.w3.org/2000/svg"><sodipodi:namedview
     id="namedview1"
     pagecolor="#ffffff"
     bordercolor="#000000"
     borderopacity="0.25"
     inkscape:showpageshadow="2"
     inkscape:pageopacity="0.0"
     inkscape:pagecheckerboard="0"
     inkscape:deskcolor="#d1d1d1"
     inkscape:document-units="mm" /><defs
     id="defs1" /><g
     inkscape:label="Livello 1"
     inkscape:groupmode="layer"
     id="layer1"
     transform="translate(190.73235,-379.90825)"><g
       id="g5470"
       transform="translate(-82.166354,354.61269)"><path
         style="display:none;fill:#fdfdfd"
         d="M -142.69725,175.44788 V -19.153168 H 185.38609 513.46944 V 175.44788 370.04892 H 185.38609 -142.69725 Z m 347.30851,150.02223 c 5.72499,-1.08602 10.57599,-5.59137 11.85285,-11.00832 1.81556,-7.70228 -2.43391,-15.16446 -10.0229,-17.60046 -2.64845,-0.85013 -6.71036,-0.96758 -9.38055,-0.27124 -11.37528,2.96648 -15.2561,16.83373 -6.95403,24.8487 3.80926,3.67753 8.90446,5.09366 14.50463,4.03132 z m -6.70179,-5.11119 c -2.86189,-1.01467 -5.01234,-3.28413 -6.03094,-6.36474 -0.69781,-2.11041 -0.47769,-5.48689 0.48948,-7.50823 0.92244,-1.92785 2.65552,-3.66494 4.59678,-4.60745 1.34578,-0.65339 1.81863,-0.73802 4.16401,-0.74531 2.35492,-0.007 2.82359,0.0739 4.26254,0.73893 1.93523,0.89436 3.75972,2.6786 4.78233,4.6768 0.68324,1.33508 0.74472,1.69547 0.74472,4.36562 0,2.59168 -0.0764,3.07327 -0.69723,4.39738 -0.98018,2.09043 -2.38012,3.52594 -4.41751,4.52975 -1.52591,0.75181 -2.0569,0.87141 -4.13871,0.93223 -1.78229,0.0521 -2.73512,-0.0532 -3.75547,-0.41498 z m 88.84208,5.2386 c 3.65103,-0.68139 6.63936,-3.04942 8.42841,-6.6789 1.3051,-2.64766 1.86197,-5.35432 1.85571,-9.01954 -0.0137,-8.04755 -3.41057,-12.78065 -9.81126,-13.67091 -3.77307,-0.52478 -7.64781,0.52149 -10.21522,2.75835 -3.20798,2.79496 -3.96948,8.78363 -1.54969,12.18712 1.76791,2.48659 4.4438,3.82062 8.10161,4.03894 2.71234,0.1619 4.58859,-0.29863 6.5246,-1.60147 l 1.30247,-0.8765 -0.22915,1.46129 c -0.2954,1.88375 -0.9613,3.36862 -2.08422,4.64757 -2.38539,2.71684 -6.84892,2.7801 -10.54337,0.14942 -0.98991,-0.70488 -1.10075,-0.68452 -1.77176,0.32545 -0.31301,0.47114 -0.93668,1.34671 -1.38593,1.94572 l -0.81681,1.0891 1.42667,0.94725 c 3.28776,2.18295 7.06361,2.98845 10.76794,2.29711 z m -3.8665,-15.11869 c -2.17891,-0.80506 -3.38288,-2.43784 -3.38288,-4.58777 0,-3.14974 2.24765,-5.16297 5.76413,-5.16297 2.61505,0 4.60623,1.13245 5.48527,3.11968 1.03529,2.34043 0.14726,4.89132 -2.17675,6.25277 -1.03195,0.60453 -4.46048,0.83249 -5.68977,0.37829 z m 41.73764,14.70509 c 2.86824,-0.69323 4.94309,-2.13161 6.22821,-4.31764 0.62958,-1.07095 0.71749,-1.49844 0.71749,-3.48903 0,-2.05981 -0.0735,-2.38846 -0.79902,-3.57187 -0.52641,-0.85868 -1.36958,-1.68697 -2.47139,-2.42782 -0.91981,-0.61846 -1.55928,-1.12447 -1.42105,-1.12447 0.54249,0 2.80958,-2.28697 3.26841,-3.29705 0.71235,-1.56823 0.6569,-4.15371 -0.12511,-5.83301 -1.51376,-3.25067 -5.36175,-5.05132 -10.32623,-4.83211 -4.23842,0.18716 -7.08013,1.58028 -8.75744,4.29326 -0.72994,1.18065 -0.79942,1.49407 -0.79942,3.60609 0,2.14703 0.0575,2.39482 0.80048,3.45201 0.44026,0.62642 1.29137,1.51336 1.89135,1.97098 l 1.09087,0.83203 -0.86834,0.41409 c -2.56087,1.22119 -4.10195,3.68049 -4.09659,6.53746 0.004,1.96968 0.53225,3.36073 1.84517,4.85605 2.66288,3.03286 8.38293,4.24577 13.82261,2.93103 z m -6.06023,-4.08292 c -2.60909,-0.54218 -4.03496,-1.82245 -4.25334,-3.81897 -0.15129,-1.38321 0.68103,-2.67061 2.32055,-3.58936 1.02842,-0.5763 1.50397,-0.66146 3.69393,-0.66146 2.18995,0 2.6655,0.0852 3.69392,0.66146 1.65211,0.9258 2.47207,2.20427 2.31779,3.61385 -0.0662,0.60518 -0.37104,1.45227 -0.67735,1.88244 -1.05268,1.47835 -4.59239,2.4322 -7.0955,1.91204 z m -0.0813,-12.73069 c -2.0619,-0.62618 -3.18467,-2.01884 -3.18467,-3.95022 0,-2.25777 1.94317,-3.68038 5.02709,-3.68038 3.13188,0 5.02708,1.41766 5.02708,3.7604 0,2.24254 -1.7898,3.83338 -4.54765,4.04212 -0.77301,0.0585 -1.81784,-0.0189 -2.32185,-0.17192 z m 38.65418,17.11213 c 4.1942,-0.88901 6.83201,-3.26765 7.7924,-7.02681 0.86546,-3.38757 0.004,-6.71025 -2.29692,-8.8628 -1.59062,-1.48784 -3.19783,-2.19938 -5.83799,-2.58457 -1.95645,-0.28544 -4.7812,-0.068 -6.11422,0.47065 -0.42303,0.17094 -0.45586,0.0505 -0.33539,-1.23015 0.0734,-0.7808 0.20464,-2.2233 0.29154,-3.20557 l 0.15802,-1.78594 h 6.59352 6.59353 V 298.876 296.49475 H 354.984 c -7.0164,0 -8.99744,0.0728 -9.00311,0.33073 -0.004,0.1819 -0.18,2.95011 -0.3911,6.15156 -0.56094,8.50697 -0.67829,7.63978 1.19404,8.82362 l 1.58941,1.00497 1.78402,-0.60798 c 1.97802,-0.6741 4.6986,-0.81528 6.17632,-0.32052 2.19553,0.73509 3.41292,2.28391 3.41292,4.3421 0,2.46872 -1.47028,4.09319 -4.16767,4.60474 -2.4753,0.46943 -4.99639,-0.26977 -7.85331,-2.30264 l -1.30534,-0.92883 -1.66634,1.8204 -1.66633,1.82039 1.09349,0.99753 c 0.60142,0.54864 1.93868,1.41415 2.97168,1.92337 3.24277,1.59851 6.60009,2.04522 9.98266,1.32825 z m -346.046725,-10.0575 0.06933,-9.9094 4.497448,6.48372 c 4.467186,6.4401 4.500599,6.47983 4.965871,5.90525 0.257633,-0.31817 2.341438,-3.27122 4.630678,-6.56235 l 4.162253,-5.98387 0.06933,9.98802 0.06933,9.98803 h 2.777222 2.777223 l -0.06842,-14.35365 -0.06842,-14.35365 -2.837772,-0.075 -2.837772,-0.075 -4.414694,6.62347 c -2.428082,3.64291 -4.484835,6.61791 -4.570561,6.61112 -0.08573,-0.007 -2.127758,-2.95359 -4.537847,-6.54844 L 11.389835,296.6271 8.5619183,296.552 5.7340012,296.4769 v 14.42874 14.42875 h 2.6426518 2.642652 z m 44.651621,-4.51965 v -14.42905 l -2.711979,0.0754 -2.71198,0.0754 -0.06842,14.35365 -0.06842,14.35365 h 2.780404 2.780404 z m 36.247918,12.0478 v -2.38125 H 84.182965 76.377756 V 308.53329 296.49475 H 73.731923 71.08609 v 14.41979 14.4198 h 10.451042 10.451042 z m 17.430366,-1.12448 1.48053,-3.37344 h 6.91148 6.91148 l 1.47072,3.37344 1.47071,3.37343 2.95324,0.075 c 1.62428,0.0413 2.90412,-0.0183 2.84408,-0.13229 -0.06,-0.11401 -3.01213,-6.61079 -6.56022,-14.43728 l -6.45106,-14.22998 -2.60155,0.0748 -2.60155,0.0748 -6.46974,14.23558 c -3.55836,7.82957 -6.46974,14.29274 -6.46974,14.3626 0,0.0699 1.267,0.0932 2.81554,0.0519 l 2.81554,-0.0751 z m 5.69011,-12.96459 c 1.18914,-2.65575 2.28051,-5.10537 2.42526,-5.4436 0.27487,-0.64229 0.0924,-1.00111 4.5174,8.88319 l 0.62186,1.38906 h -4.8633 -4.86329 z m 36.20916,6.52483 0.0693,-9.94548 8.01575,9.94548 8.01575,9.94549 h 2.23686 2.23685 v -14.4198 -14.41979 h -2.64257 -2.64257 l -0.0694,9.67045 -0.0694,9.67046 -7.79472,-9.67046 -7.79473,-9.67045 h -2.45788 -2.45787 v 14.41979 14.4198 h 2.64265 2.64265 z m 108.68079,-4.47431 v -14.41979 h -2.15287 c -2.03061,0 -3.81448,0.42647 -9.40213,2.24778 -0.22423,0.0731 -0.15615,0.67393 0.24564,2.16781 0.30572,1.13669 0.58878,2.11096 0.62904,2.16505 0.0596,0.0801 2.8329,-0.59081 4.92563,-1.19169 0.43603,-0.12519 0.46302,0.55432 0.46302,11.65885 v 11.79179 h 2.64583 2.64584 z M 29.405404,257.33055 c 7.169243,-1.51591 13.439666,-4.99115 18.333032,-10.16065 5.096093,-5.38367 7.868668,-11.60708 8.543722,-19.17749 0.169935,-1.90575 0.244369,-11.46813 0.19654,-25.24927 l -0.07698,-22.18183 -0.742358,-0.63849 c -0.740841,-0.63718 -0.755549,-0.63849 -7.195142,-0.63849 -6.439409,0 -6.454322,10e-4 -7.195142,0.63843 l -0.742358,0.63843 -0.132292,24.16626 -0.132292,24.16626 -0.816315,2.28011 C 36.460226,239.5131 28.187208,244.44328 19.078528,243.3114 10.908633,242.29617 4.917186,237.12767 3.0939917,229.52239 2.5829419,227.3906 2.5626409,226.42136 2.5608578,204.06867 l -0.00185,-23.23754 -0.7733974,-0.7734 -0.7733975,-0.7734 h -6.5146709 -6.514671 l -0.649432,0.64944 -0.649431,0.64943 v 24.18674 c 0,20.18569 0.06489,24.55887 0.392285,26.43628 2.402555,13.77727 14.3177605,24.60939 29.294951,26.63207 3.053648,0.4124 9.953716,0.1436 13.034164,-0.50774 z m 106.857716,0.40281 c 5.08829,-0.66702 9.51911,-2.0104 13.8889,-4.21099 2.54455,-1.28142 6.36001,-3.88617 8.09305,-5.52501 1.24188,-1.17438 1.47644,-1.54246 1.47644,-2.31693 0,-0.82198 -0.30509,-1.21858 -2.84427,-3.69732 -6.61475,-6.45733 -6.10157,-6.2333 -9.32656,-4.07153 -7.88514,5.28555 -16.74432,6.75883 -24.99687,4.15698 -9.13033,-2.8786 -15.94458,-10.55003 -17.60017,-19.81411 -0.44041,-2.46441 -0.21594,-8.40459 0.404,-10.69095 1.21503,-4.48111 3.46572,-8.38772 6.72436,-11.67176 9.26782,-9.34007 24.60993,-10.15495 35.59967,-1.89084 2.80583,2.10994 2.69897,2.14637 7.6301,-2.60151 2.28106,-2.19631 4.21932,-4.2799 4.30725,-4.63021 0.28493,-1.13528 -0.11343,-1.8259 -1.86107,-3.22636 -5.5247,-4.42722 -11.4416,-7.21363 -18.21681,-8.57871 -2.55577,-0.51495 -3.80212,-0.59905 -8.9238,-0.60218 -5.16052,-0.003 -6.34962,0.0767 -8.93112,0.59994 -13.2738,2.69032 -23.990729,10.58776 -29.771677,21.93912 -3.063731,6.01588 -4.02647,10.22236 -4.01477,17.54168 0.0074,4.62654 0.07987,5.4626 0.701801,8.0955 2.010064,8.5095 6.539346,15.87592 13.142356,21.3747 9.48436,7.89827 22.00654,11.46075 34.51919,9.82049 z m 225.21521,-0.25262 0.64944,-0.64944 v -38.12466 -38.12466 l -0.7001,-0.64882 -0.70009,-0.64883 h -6.29661 c -6.27452,0 -6.29922,0.002 -7.03897,0.6385 l -0.74236,0.63849 -0.0704,23.07143 -0.0704,23.07143 -24.345,-24.23909 -24.34501,-24.23909 h -2.0855 c -2.00398,0 -2.11229,0.0318 -2.77049,0.81405 l -0.68498,0.81405 v 37.53809 c 0,28.53999 0.0758,37.70438 0.3161,38.23183 0.60403,1.3257 1.25564,1.44782 7.7258,1.44782 5.90973,0 5.95672,-0.004 6.69387,-0.6385 l 0.74236,-0.6385 0.13229,-24.10126 0.13229,-24.10126 24.45346,25.26892 24.45346,25.26893 h 1.95076 c 1.71839,0 2.02811,-0.0774 2.60018,-0.64943 z m 80.87396,0.35897 c 5.37503,-0.57348 12.21707,-2.75549 16.82306,-5.36506 6.91166,-3.91589 13.0389,-10.29707 16.50316,-17.18713 1.5025,-2.98833 3.01892,-7.76389 3.54255,-11.15631 0.6355,-4.11728 0.41152,-10.54385 -0.50361,-14.44922 -3.62529,-15.47125 -16.03811,-27.15255 -32.58447,-30.66419 -3.45695,-0.73366 -10.43293,-0.99402 -14.36659,-0.53619 -18.61558,2.16665 -33.33306,15.67354 -36.47937,33.47877 -0.57118,3.23236 -0.55292,9.2784 0.0384,12.7 2.49256,14.42375 12.94592,26.30219 27.36415,31.09462 6.44211,2.14128 12.80734,2.81614 19.66275,2.08471 z m -8.12556,-14.53504 c -12.3608,-1.34524 -22.10147,-10.47975 -23.69042,-22.21617 -1.10951,-8.1951 2.83699,-17.22161 9.86906,-22.57272 2.62698,-1.99902 4.85912,-3.16527 8.13281,-4.24925 10.17004,-3.36746 21.08813,-0.66008 28.50193,7.06767 3.3871,3.53054 5.34558,7.09774 6.46057,11.76739 0.80137,3.35619 0.60718,8.75006 -0.43042,11.95566 -3.28283,10.14203 -12.13757,17.11297 -23.17645,18.24577 -2.90838,0.29846 -2.93979,0.29846 -5.66708,0.002 z m -504.143209,12.99377 0.773398,-0.7734 v -31.37348 -31.37348 h 11.265144 11.265145 l 0.773397,-0.77339 0.773398,-0.7734 v -5.20008 -5.20008 l -0.773398,-0.7734 -0.773397,-0.7734 h -30.411358 -30.41136 l -0.69753,0.69754 -0.69754,0.69754 v 5.3518 5.3518 l 0.69754,0.69754 0.69753,0.69753 h 11.341007 11.341004 v 31.4619 31.4619 l 0.814051,0.68498 0.81405,0.68498 h 6.217761 6.217761 z m 269.065029,0.28777 c 0.98951,-0.52122 1.40517,-1.25493 5.53332,-9.76698 l 1.95682,-4.03489 h 17.43434 17.43434 l 3.12268,6.41614 c 1.80694,3.7127 3.42593,6.69485 3.8424,7.07761 0.7173,0.65923 0.73981,0.66172 6.70865,0.74209 3.29391,0.0444 6.26417,0.0115 6.60057,-0.0729 0.88065,-0.22103 1.65651,-1.09286 1.65651,-1.8614 0,-0.84755 -36.38465,-75.7778 -37.09681,-76.39688 -0.66834,-0.58097 -3.28192,-0.63768 -4.06636,-0.0882 -0.58107,0.40699 -37.68267,75.69062 -37.68267,76.46269 0,0.25386 0.34803,0.80959 0.7734,1.23496 l 0.7734,0.7734 h 6.04375 c 5.35186,0 6.14929,-0.0556 6.96566,-0.48563 z m 18.98926,-38.28004 c 3.14065,-6.62351 5.80089,-11.95156 5.91163,-11.84011 0.19118,0.19241 8.82163,17.90015 10.70518,21.96463 l 0.88895,1.91823 h -11.60803 -11.60802 z m 14.07953,-77.12588 c 5.38214,-0.68426 9.97393,-4.93509 11.0847,-10.26158 0.39341,-1.88653 0.41481,-93.26245 0.0223,-95.332014 -0.65953,-3.47768 -3.44681,-7.260113 -6.58098,-8.930609 -3.20402,-1.707723 -0.28869,-1.615625 -51.27813,-1.619927 -32.83397,-0.0028 -46.76418,0.08138 -47.75729,0.288476 -4.47812,0.933853 -8.15588,4.215505 -9.78762,8.733459 l -0.6103,1.68978 -0.0775,46.0375 c -0.0517,30.693775 0.0139,46.742955 0.19682,48.154165 0.73502,5.67115 5.42765,10.51766 10.86414,11.22039 2.43614,0.3149 91.45534,0.3342 93.92384,0.0204 z m -93.00932,-9.27281 c -0.44112,-0.12831 -1.07932,-0.49162 -1.41822,-0.80735 -1.42376,-1.32643 -1.35163,1.23123 -1.35163,-47.927278 V 37.579791 l 0.59532,-1.160964 c 0.37088,-0.723291 0.9444,-1.343726 1.52131,-1.645752 0.88892,-0.465381 2.776,-0.482051 47.1426,-0.416452 l 46.21661,0.06833 0.74698,0.547974 c 0.41084,0.301386 0.95515,0.95623 1.20959,1.455209 0.43516,0.853394 0.46263,3.631719 0.46302,46.81657 3.9e-4,43.919754 -0.0205,45.949284 -0.48219,46.831244 -0.29984,0.57279 -0.92225,1.14736 -1.64356,1.51723 l -1.16096,0.59532 -45.51842,-0.0239 c -25.41091,-0.0133 -45.87271,-0.12693 -46.32045,-0.25716 z m 13.10516,-32.391455 c 11.60025,-0.808769 17.93151,-1.013137 31.48541,-1.016328 14.66312,-0.0035 24.72043,0.386879 38.17847,1.481733 0.70911,0.05769 0.80761,-0.09221 2.36457,-3.59836 l 1.62463,-3.658555 -0.43386,-1.170633 c -0.52741,-1.423016 -2.48959,-4.497831 -3.98737,-6.248375 -6.27937,-7.339033 -19.58544,-13.216457 -37.29224,-16.472352 -9.51892,-1.750322 -23.5464,-3.138367 -34.16042,-3.380237 l -3.14685,-0.07171 -1.01748,3.836459 c -0.55961,2.110052 -1.01876,3.907201 -1.02033,3.993666 -0.002,0.08646 3.53924,0.23332 7.86849,0.326347 25.97693,0.558192 47.29052,4.782674 59.54322,11.801831 2.89543,1.65869 7.21349,4.95214 7.94218,6.057621 0.40215,0.610099 0.39743,0.614511 -0.49986,0.466588 -3.49144,-0.575583 -23.29065,-1.208695 -37.68294,-1.204974 -15.01533,0.0039 -33.82881,0.717365 -34.80373,1.319897 -0.27754,0.171534 -2.34077,7.052991 -2.36157,7.876534 -0.006,0.240393 0.24808,0.300133 0.85124,0.200083 0.47294,-0.07845 3.41974,-0.321102 6.54844,-0.539235 z"
         id="path5477" /><path
         style="display:none;fill:#d5d5d5"
         d="m 292.67464,322.42392 c 0.26339,-0.29104 0.53842,-0.52917 0.61118,-0.52917 0.0728,0 -0.0832,0.23813 -0.3466,0.52917 -0.26339,0.29104 -0.53842,0.52917 -0.61118,0.52917 -0.0728,0 0.0832,-0.23813 0.3466,-0.52917 z m -84.56813,-18.71927 c -0.32911,-0.41965 -0.31975,-0.429 0.0999,-0.0999 0.44073,0.34565 0.58088,0.56292 0.36312,0.56292 -0.0549,0 -0.2633,-0.20836 -0.46302,-0.46302 z m 144.74659,-49.74167 -0.91179,-0.99219 0.99218,0.9118 c 0.92351,0.84868 1.11384,1.07258 0.9118,1.07258 -0.0442,0 -0.4907,-0.44649 -0.99219,-0.99219 z m 53.31785,-8.33437 -1.31298,-1.38907 1.38907,1.31297 c 1.29074,1.22004 1.5104,1.46516 1.31297,1.46516 -0.0418,0 -0.66693,-0.62508 -1.38906,-1.38906 z m -61.38584,0 -1.04589,-1.12448 1.12448,1.04588 c 1.04576,0.97266 1.24606,1.20308 1.04589,1.20308 -0.0432,0 -0.54925,-0.50602 -1.12448,-1.12448 z m -189.8261,-5.35782 c -0.64268,-0.65484 -1.10898,-1.19062 -1.03622,-1.19062 0.0728,0 0.65812,0.53578 1.3008,1.19062 0.64268,0.65485 1.10898,1.19063 1.03622,1.19063 -0.0728,0 -0.65812,-0.53578 -1.3008,-1.19063 z m 181.75451,-2.97656 -0.9118,-0.99219 0.99219,0.9118 c 0.5457,0.50149 0.99219,0.94798 0.99219,0.99219 0,0.20204 -0.2239,0.0117 -1.07258,-0.9118 z m -8.068,-8.33437 -1.04588,-1.12448 1.12448,1.04588 c 1.04575,0.97266 1.24606,1.20307 1.04588,1.20307 -0.0432,0 -0.54924,-0.50601 -1.12448,-1.12447 z m -2.76631,-22.62188 -20.50457,-20.57135 20.57135,20.50456 c 11.31425,11.27752 20.57136,20.53463 20.57136,20.57136 0,0.0367 -0.0301,0.0668 -0.0668,0.0668 -0.0367,0 -9.29384,-9.2571 -20.57135,-20.57135 z m -5.17119,14.41979 -1.04588,-1.12448 1.12448,1.04589 c 1.04575,0.97266 1.24606,1.20307 1.04588,1.20307 -0.0432,0 -0.54924,-0.50601 -1.12448,-1.12448 z m -8.07158,-8.33437 -0.9118,-0.99219 0.99219,0.9118 c 0.5457,0.50149 0.99218,0.94797 0.99218,0.99219 0,0.20204 -0.22389,0.0117 -1.07257,-0.9118 z m 143.93333,-11.64167 -0.91179,-0.99219 0.99218,0.9118 c 0.54571,0.50149 0.99219,0.94797 0.99219,0.99219 0,0.20204 -0.22389,0.0117 -1.07258,-0.9118 z m -302.15099,-4.63021 c 1.09643,-1.16818 1.33398,-1.37824 1.33398,-1.17957 0,0.0425 -0.56555,0.60801 -1.25677,1.25678 l -1.25677,1.17956 z m -56.212898,-4.43177 c 0.263389,-0.29104 0.538421,-0.52917 0.611181,-0.52917 0.07276,0 -0.08321,0.23813 -0.346598,0.52917 -0.263389,0.29104 -0.53842,0.52917 -0.61118,0.52917 -0.07276,0 0.08321,-0.23813 0.346597,-0.52917 z m 308.107298,-1.19062 c 0.34178,-0.36381 0.68094,-0.66146 0.7537,-0.66146 0.0728,0 -0.14734,0.29765 -0.48911,0.66146 -0.34178,0.3638 -0.68094,0.66145 -0.7537,0.66145 -0.0728,0 0.14734,-0.29765 0.48911,-0.66145 z m -306.25521,-0.66146 c 0.26338,-0.29104 0.53842,-0.52917 0.61118,-0.52917 0.0728,0 -0.0832,0.23813 -0.3466,0.52917 -0.26339,0.29104 -0.538422,0.52916 -0.611182,0.52916 -0.07276,0 0.08321,-0.23812 0.346602,-0.52916 z m 58.83604,-1.25677 c -0.32911,-0.41965 -0.31975,-0.42901 0.0999,-0.0999 0.25467,0.19972 0.46303,0.40808 0.46303,0.46302 0,0.21776 -0.21728,0.0776 -0.56292,-0.36312 z m 61.26815,-104.642712 -0.77711,-0.859896 0.8599,0.777105 c 0.80154,0.724371 0.98151,0.942686 0.7771,0.942686 -0.0455,0 -0.43248,-0.386953 -0.85989,-0.859895 z"
         id="path5476" /><path
         style="display:none;fill:#bcbcbc"
         d="m 199.88857,325.68276 c 0.19099,-0.0764 0.4192,-0.067 0.50712,0.0209 0.0879,0.0879 -0.0684,0.15045 -0.34727,0.13896 -0.30822,-0.0127 -0.37092,-0.0754 -0.15985,-0.15985 z m 2.38125,0 c 0.19099,-0.0764 0.4192,-0.067 0.50712,0.0209 0.0879,0.0879 -0.0684,0.15045 -0.34727,0.13896 -0.30822,-0.0127 -0.37092,-0.0754 -0.15985,-0.15985 z m 80.69792,0 c 0.19099,-0.0764 0.4192,-0.067 0.50711,0.0209 0.0879,0.0879 -0.0684,0.15045 -0.34726,0.13896 -0.30823,-0.0127 -0.37092,-0.0754 -0.15985,-0.15985 z m 2.11666,0 c 0.191,-0.0764 0.4192,-0.067 0.50712,0.0209 0.0879,0.0879 -0.0684,0.15045 -0.34726,0.13896 -0.30823,-0.0127 -0.37092,-0.0754 -0.15986,-0.15985 z m 67.73334,0 c 0.191,-0.0764 0.4192,-0.067 0.50712,0.0209 0.0879,0.0879 -0.0684,0.15045 -0.34727,0.13896 -0.30822,-0.0127 -0.37092,-0.0754 -0.15985,-0.15985 z m 2.38125,0 c 0.191,-0.0764 0.4192,-0.067 0.50712,0.0209 0.0879,0.0879 -0.0684,0.15045 -0.34727,0.13896 -0.30822,-0.0127 -0.37092,-0.0754 -0.15985,-0.15985 z m -320.297062,-14.69312 -0.06376,-14.2124 -2.844271,-0.0851 -2.844271,-0.085 2.852575,-0.0562 c 2.0811,-0.041 2.886818,0.0333 2.979192,0.27454 0.06964,0.1819 0.09459,6.64104 0.05545,14.35365 l -0.07117,14.02291 z m 15.410922,-0.20739 0.0034,-14.15521 2.580303,-0.0152 2.580302,-0.0152 -2.511863,0.0909 -2.511862,0.0909 -0.07189,14.07951 -0.07189,14.07951 z m 150.6206,10.13162 c 0.32912,-0.0633 0.80537,-0.0609 1.05833,0.005 0.25297,0.0662 -0.0163,0.11801 -0.59839,0.11507 -0.58209,-0.003 -0.78906,-0.0571 -0.45994,-0.12041 z m 158.86465,-4.70766 c 0.005,-0.43656 0.0647,-0.58312 0.13177,-0.32569 0.0671,0.25743 0.0627,0.61462 -0.01,0.79375 -0.0725,0.17913 -0.12737,-0.0315 -0.12197,-0.46806 z m 5.26097,-1.08038 c 0.0127,-0.30823 0.0754,-0.37092 0.15985,-0.15985 0.0764,0.19099 0.067,0.4192 -0.0209,0.50711 -0.0879,0.0879 -0.15045,-0.0684 -0.13896,-0.34726 z m -153.93272,-4.21129 c 0.002,-0.7276 0.0534,-0.99385 0.11419,-0.59167 0.0608,0.40218 0.0592,0.9975 -0.004,1.32292 -0.0628,0.32542 -0.11256,-0.004 -0.11058,-0.73125 z m -19.86784,0 c 0.005,-0.43656 0.0647,-0.58312 0.13177,-0.32569 0.0671,0.25743 0.0627,0.61462 -0.01,0.79375 -0.0725,0.17913 -0.12737,-0.0315 -0.12197,-0.46806 z m 153.9777,-3.0427 c 0,-0.36381 0.06,-0.51263 0.13345,-0.33073 0.0734,0.1819 0.0734,0.47955 0,0.66145 -0.0734,0.18191 -0.13345,0.0331 -0.13345,-0.33072 z m 10.49195,-0.97449 c 0.19099,-0.0764 0.41919,-0.067 0.50711,0.0209 0.0879,0.0879 -0.0684,0.15046 -0.34726,0.13897 -0.30823,-0.0127 -0.37092,-0.0754 -0.15985,-0.15985 z m -5.48576,-1.03194 c 0.0127,-0.30822 0.0754,-0.37092 0.15986,-0.15985 0.0764,0.191 0.067,0.4192 -0.0209,0.50712 -0.0879,0.0879 -0.15046,-0.0683 -0.13897,-0.34727 z m -35.15889,-1.30087 c 0.005,-0.43656 0.0647,-0.58312 0.13177,-0.32569 0.0671,0.25743 0.0627,0.61462 -0.01,0.79375 -0.0725,0.17913 -0.12736,-0.0315 -0.12197,-0.46806 z m 10.31875,0 c 0.005,-0.43656 0.0647,-0.58312 0.13177,-0.32569 0.0671,0.25743 0.0627,0.61462 -0.01,0.79375 -0.0725,0.17913 -0.12736,-0.0315 -0.12197,-0.46806 z m 20.07764,-1.08038 c 0.0127,-0.30822 0.0754,-0.37092 0.15986,-0.15985 0.0764,0.191 0.067,0.4192 -0.0209,0.50712 -0.0879,0.0879 -0.15046,-0.0684 -0.13897,-0.34727 z m 5.02709,-1.32291 c 0.0127,-0.30823 0.0754,-0.37092 0.15985,-0.15986 0.0764,0.191 0.067,0.4192 -0.0209,0.50712 -0.0879,0.0879 -0.15045,-0.0684 -0.13896,-0.34726 z m -30.64641,-1.61555 c 0.25466,-0.0666 0.67138,-0.0666 0.92604,0 0.25466,0.0666 0.0463,0.121 -0.46302,0.121 -0.50933,0 -0.71768,-0.0544 -0.46302,-0.121 z m 25.90479,-1.40511 c 0,-0.36381 0.0601,-0.51263 0.13346,-0.33073 0.0734,0.1819 0.0734,0.47955 0,0.66145 -0.0734,0.18191 -0.13346,0.0331 -0.13346,-0.33072 z M 7.1327274,296.56352 c 0.8420582,-0.0527 2.1517457,-0.0522 2.9104166,0.001 0.758671,0.0533 0.06972,0.0963 -1.5310147,0.0958 -1.6007292,-5.9e-4 -2.2214601,-0.0442 -1.3794019,-0.0968 z m 65.2101326,7.5e-4 c 0.763985,-0.0534 2.014141,-0.0534 2.778126,0 0.763984,0.0534 0.138906,0.0972 -1.389063,0.0972 -1.527969,0 -2.153047,-0.0437 -1.389063,-0.0972 z m 75.01736,2.6e-4 c 0.69562,-0.0547 1.76718,-0.054 2.38125,0.001 0.61407,0.0555 0.0449,0.10023 -1.26475,0.0994 -1.30969,-8.1e-4 -1.81211,-0.0462 -1.1165,-0.10089 z m 20.77068,-5.6e-4 c 0.76886,-0.0536 1.95949,-0.0531 2.64583,0.001 0.68635,0.0543 0.0573,0.0982 -1.39793,0.0975 -1.45521,-6.9e-4 -2.01676,-0.0451 -1.2479,-0.0987 z m 182.42134,-0.003 c 2.43748,-0.0437 6.42607,-0.0437 8.86355,0 2.43747,0.0437 0.44317,0.0794 -4.43177,0.0794 -4.87495,0 -6.86925,-0.0357 -4.43178,-0.0794 z M 200.79807,296.0474 c 0.25466,-0.0666 0.67138,-0.0666 0.92604,0 0.25467,0.0666 0.0463,0.121 -0.46302,0.121 -0.50932,0 -0.71768,-0.0545 -0.46302,-0.121 z m 83.87292,0 c 0.25466,-0.0666 0.67138,-0.0666 0.92604,0 0.25467,0.0666 0.0463,0.121 -0.46302,0.121 -0.50932,0 -0.71768,-0.0545 -0.46302,-0.121 z M 18.384395,257.94943 c 0.190996,-0.0764 0.419199,-0.067 0.507118,0.0209 0.08792,0.0879 -0.06835,0.15045 -0.347265,0.13896 -0.308225,-0.0127 -0.37092,-0.0754 -0.159853,-0.15985 z m 5.820834,0 c 0.190996,-0.0764 0.419199,-0.067 0.507118,0.0209 0.08792,0.0879 -0.06835,0.15045 -0.347266,0.13896 -0.308224,-0.0127 -0.370919,-0.0754 -0.159852,-0.15985 z m 102.922921,0 c 0.19099,-0.0764 0.4192,-0.067 0.50712,0.0209 0.0879,0.0879 -0.0684,0.15045 -0.34727,0.13896 -0.30822,-0.0127 -0.37092,-0.0754 -0.15985,-0.15985 z m 6.08542,0 c 0.19099,-0.0764 0.41919,-0.067 0.50711,0.0209 0.0879,0.0879 -0.0683,0.15045 -0.34726,0.13896 -0.30823,-0.0127 -0.37092,-0.0754 -0.15985,-0.15985 z m 300.55014,0.006 c 0.1819,-0.0734 0.47955,-0.0734 0.66145,0 0.1819,0.0734 0.0331,0.13345 -0.33073,0.13345 -0.3638,0 -0.51263,-0.06 -0.33072,-0.13345 z m 6.36653,-0.006 c 0.191,-0.0764 0.4192,-0.067 0.50712,0.0209 0.0879,0.0879 -0.0684,0.15045 -0.34727,0.13896 -0.30822,-0.0127 -0.37092,-0.0754 -0.15985,-0.15985 z M 292.40647,217.64892 c 0,-20.73672 0.0314,-29.21992 0.0697,-18.85156 0.0383,10.36835 0.0383,27.33476 0,37.70312 -0.0383,10.36836 -0.0697,1.88516 -0.0697,-18.85156 z M 19.707312,243.39734 c 0.190996,-0.0764 0.419199,-0.067 0.507118,0.0209 0.08792,0.0879 -0.06835,0.15046 -0.347266,0.13897 -0.308224,-0.0127 -0.370919,-0.0754 -0.159852,-0.15986 z m 3.175,0 c 0.190996,-0.0764 0.419199,-0.067 0.507118,0.0209 0.08792,0.0879 -0.06835,0.15046 -0.347266,0.13897 -0.308224,-0.0127 -0.370919,-0.0754 -0.159852,-0.15986 z m 412.220848,0 c 0.19099,-0.0764 0.4192,-0.067 0.50712,0.0209 0.0879,0.0879 -0.0684,0.15046 -0.34727,0.13897 -0.30822,-0.0127 -0.37092,-0.0754 -0.15985,-0.15986 z m 3.70416,0 c 0.191,-0.0764 0.4192,-0.067 0.50712,0.0209 0.0879,0.0879 -0.0684,0.15046 -0.34726,0.13897 -0.30823,-0.0127 -0.37092,-0.0754 -0.15986,-0.15986 z M 150.1469,236.51818 c 0.191,-0.0764 0.4192,-0.067 0.50712,0.0209 0.0879,0.0879 -0.0684,0.15045 -0.34727,0.13896 -0.30822,-0.0127 -0.37092,-0.0754 -0.15985,-0.15985 z m 196.49697,-32.36301 c 0,-12.58755 0.0323,-17.73701 0.0718,-11.44323 0.0395,6.29377 0.0395,16.59268 0,22.88646 -0.0395,6.29377 -0.0718,1.14432 -0.0718,-11.44323 z M 56.395881,203.89058 c 0,-12.44203 0.03236,-17.53195 0.0719,-11.31093 0.03955,6.22101 0.03955,16.40086 0,22.62187 -0.03955,6.22102 -0.0719,1.1311 -0.0719,-11.31094 z m -15.875033,-0.39687 c 1.7e-5,-12.36927 0.0324,-17.39073 0.07195,-11.15881 0.03956,6.23193 0.03954,16.35224 -3.3e-5,22.48959 -0.03957,6.13734 -0.07194,1.03849 -0.07192,-11.33078 z m 63.964122,15.47812 c 0,-0.50932 0.0545,-0.71768 0.121,-0.46302 0.0666,0.25467 0.0666,0.67138 0,0.92605 -0.0665,0.25466 -0.121,0.0463 -0.121,-0.46303 z m 359.59207,-0.79375 c 0,-0.94588 0.048,-1.33283 0.10671,-0.85989 0.0587,0.47294 0.0587,1.24685 0,1.71979 -0.0587,0.47294 -0.10671,0.086 -0.10671,-0.8599 z m -69.32985,0.1323 c 0.002,-0.72761 0.0534,-0.99386 0.11419,-0.59168 0.0608,0.40219 0.0592,0.9975 -0.004,1.32292 -0.0628,0.32542 -0.11256,-0.004 -0.11057,-0.73124 z m -290.26222,-1.45521 c 0,-0.50932 0.0545,-0.71768 0.121,-0.46302 0.0666,0.25466 0.0666,0.67138 0,0.92604 -0.0665,0.25466 -0.121,0.0463 -0.121,-0.46302 z m 305.81785,-0.68351 c 0.0127,-0.30822 0.0754,-0.37092 0.15985,-0.15985 0.0764,0.19099 0.067,0.4192 -0.0209,0.50712 -0.0879,0.0879 -0.15046,-0.0684 -0.13897,-0.34727 z M -45.220294,186.03121 c 2.54e-4,-2.7649 0.03946,-3.86004 0.08713,-2.43365 0.04767,1.42638 0.04746,3.68857 -4.62e-4,5.02708 -0.04792,1.33851 -0.08692,0.17147 -0.08666,-2.59343 z m 179.756774,-7.72137 c 0.191,-0.0764 0.4192,-0.067 0.50712,0.0209 0.0879,0.0879 -0.0684,0.15045 -0.34727,0.13897 -0.30822,-0.0127 -0.37091,-0.0754 -0.15985,-0.15986 z m 298.45001,0 c 0.191,-0.0764 0.4192,-0.067 0.50712,0.0209 0.0879,0.0879 -0.0684,0.15045 -0.34727,0.13897 -0.30822,-0.0127 -0.37092,-0.0754 -0.15985,-0.15986 z M 162.69807,141.2505 c 12.47841,-0.038 32.89763,-0.038 45.37604,0 12.47842,0.038 2.26881,0.0691 -22.68802,0.0691 -24.95682,0 -35.16643,-0.0311 -22.68802,-0.0691 z M 127.30708,83.108292 c 1e-5,-25.175105 0.0311,-35.434826 0.0691,-22.799381 0.038,12.635446 0.038,33.233258 -1e-5,45.772919 -0.038,12.53966 -0.0691,2.20157 -0.0691,-22.973538 z m 17.81274,16.884884 c 0.19099,-0.07643 0.4192,-0.06703 0.50711,0.02088 0.0879,0.0879 -0.0683,0.15046 -0.34726,0.13897 -0.30823,-0.0127 -0.37092,-0.0754 -0.15985,-0.159874 z m 3.175,-0.264583 c 0.19099,-0.07643 0.4192,-0.06703 0.50711,0.02089 0.0879,0.08792 -0.0684,0.150453 -0.34726,0.138964 -0.30823,-0.0127 -0.37092,-0.07539 -0.15985,-0.159852 z m 70.90833,0 c 0.191,-0.07643 0.4192,-0.06703 0.50712,0.02089 0.0879,0.08792 -0.0684,0.150453 -0.34727,0.138964 -0.30822,-0.0127 -0.37092,-0.07539 -0.15985,-0.159852 z M 151.7344,99.46401 c 0.191,-0.07643 0.4192,-0.06703 0.50712,0.02089 0.0879,0.08792 -0.0684,0.150453 -0.34727,0.138964 -0.30822,-0.0127 -0.37092,-0.07539 -0.15985,-0.159852 z m 64.02917,0 c 0.19099,-0.07643 0.4192,-0.06703 0.50712,0.02089 0.0879,0.08792 -0.0684,0.150453 -0.34727,0.138964 -0.30822,-0.0127 -0.37092,-0.07539 -0.15985,-0.159852 z m -60.325,-0.264584 c 0.19099,-0.07643 0.4192,-0.06703 0.50711,0.02089 0.0879,0.08792 -0.0684,0.150453 -0.34726,0.138965 -0.30823,-0.0127 -0.37092,-0.07539 -0.15985,-0.159853 z m 56.33971,0.0055 c 0.1819,-0.0734 0.47956,-0.0734 0.66146,0 0.1819,0.0734 0.0331,0.133453 -0.33073,0.133453 -0.3638,0 -0.51263,-0.06005 -0.33073,-0.133453 z m -51.85833,-0.264583 c 0.1819,-0.0734 0.47955,-0.0734 0.66145,0 0.18191,0.0734 0.0331,0.133452 -0.33072,0.133452 -0.36381,0 -0.51263,-0.06005 -0.33073,-0.133452 z m 47.36041,0 c 0.18191,-0.0734 0.47956,-0.0734 0.66146,0 0.1819,0.0734 0.0331,0.133452 -0.33073,0.133452 -0.3638,0 -0.51263,-0.06005 -0.33073,-0.133452 z m -41.93645,-0.271739 c 0.25466,-0.06655 0.67138,-0.06655 0.92604,0 0.25466,0.06655 0.0463,0.121 -0.46302,0.121 -0.50933,0 -0.71769,-0.05445 -0.46302,-0.121 z m 35.98333,0 c 0.25466,-0.06655 0.67138,-0.06655 0.92604,0 0.25466,0.06655 0.0463,0.121 -0.46302,0.121 -0.50932,0 -0.71768,-0.05445 -0.46302,-0.121 z m -27.38438,-0.273598 c 0.47295,-0.05869 1.24685,-0.05869 1.7198,0 0.47294,0.05869 0.086,0.106713 -0.8599,0.106713 -0.94589,0 -1.33284,-0.04802 -0.8599,-0.106713 z m 17.72119,4.41e-4 c 0.46969,-0.05845 1.30313,-0.05941 1.85208,-0.0021 0.54895,0.05728 0.16465,0.105099 -0.85399,0.106272 -1.01865,0.0012 -1.46779,-0.04569 -0.99809,-0.104137 z m 27.5391,-6.604366 c 0.191,-0.07643 0.4192,-0.06703 0.50712,0.02089 0.0879,0.08792 -0.0684,0.150453 -0.34727,0.138964 -0.30822,-0.0127 -0.37092,-0.07539 -0.15985,-0.159852 z M 151.20523,91.52651 c 0.191,-0.07643 0.4192,-0.06703 0.50712,0.02089 0.0879,0.08792 -0.0683,0.150452 -0.34726,0.138964 -0.30823,-0.0127 -0.37092,-0.07539 -0.15986,-0.159852 z m 64.02917,0 c 0.191,-0.07643 0.4192,-0.06703 0.50712,0.02089 0.0879,0.08792 -0.0684,0.150452 -0.34727,0.138964 -0.30822,-0.0127 -0.37092,-0.07539 -0.15985,-0.159852 z m -60.07695,-0.259072 c 0.1819,-0.0734 0.47955,-0.0734 0.66145,0 0.18191,0.0734 0.0331,0.133452 -0.33072,0.133452 -0.36381,0 -0.51263,-0.06005 -0.33073,-0.133452 z m 55.17066,-0.0081 c 0.25743,-0.06708 0.61462,-0.06267 0.79375,0.0098 0.17913,0.07248 -0.0315,0.127362 -0.46806,0.12197 -0.43656,-0.0054 -0.58312,-0.06469 -0.32569,-0.131774 z M 160.58644,90.99473 c 0.25743,-0.06708 0.61462,-0.06267 0.79375,0.0098 0.17913,0.07248 -0.0315,0.127362 -0.46806,0.12197 -0.43656,-0.0054 -0.58312,-0.06469 -0.32569,-0.131773 z m 43.38663,9.69e-4 c 0.25466,-0.06655 0.67138,-0.06655 0.92604,0 0.25467,0.06655 0.0463,0.121 -0.46302,0.121 -0.50932,0 -0.71768,-0.05445 -0.46302,-0.121 z m -35.71875,-0.271708 c 0.40018,-0.06062 1.05503,-0.06062 1.45521,0 0.40018,0.06062 0.0728,0.110223 -0.7276,0.110223 -0.80037,0 -1.12779,-0.0496 -0.72761,-0.110223 z m 26.59537,-0.0022 c 0.47554,-0.05889 1.18992,-0.05767 1.5875,0.0027 0.39757,0.06037 0.008,0.108551 -0.86464,0.107066 -0.87312,-0.0015 -1.19841,-0.05088 -0.72286,-0.109766 z M 166.0219,74.064009 c 0.191,-0.07643 0.4192,-0.06703 0.50712,0.02089 0.0879,0.08792 -0.0684,0.150453 -0.34727,0.138965 -0.30822,-0.0127 -0.37092,-0.07539 -0.15985,-0.159853 z m -3.70417,-0.264583 c 0.191,-0.07643 0.4192,-0.06703 0.50712,0.02089 0.0879,0.08792 -0.0684,0.150453 -0.34726,0.138964 -0.30823,-0.01269 -0.37092,-0.07539 -0.15986,-0.159852 z m -5.17087,-0.267197 c 0.25743,-0.06708 0.61462,-0.06267 0.79375,0.0098 0.17913,0.07248 -0.0315,0.127362 -0.46806,0.12197 -0.43656,-0.0054 -0.58312,-0.06469 -0.32569,-0.131774 z m -10.98525,-0.274958 c 0.61847,-0.0557 1.6305,-0.0557 2.24896,0 0.61846,0.0557 0.11245,0.10128 -1.12448,0.10128 -1.23693,0 -1.74294,-0.04558 -1.12448,-0.10128 z m 12.98112,-7.395345 c 0.191,-0.07643 0.4192,-0.06703 0.50712,0.02089 0.0879,0.08792 -0.0683,0.150453 -0.34726,0.138964 -0.30823,-0.01269 -0.37092,-0.07539 -0.15986,-0.159852 z m -4.51445,-0.259071 c 0.1819,-0.0734 0.47956,-0.0734 0.66146,0 0.1819,0.0734 0.0331,0.133452 -0.33073,0.133452 -0.3638,0 -0.51263,-0.06005 -0.33073,-0.133452 z m -6.21771,-0.271739 c 0.25466,-0.06655 0.67138,-0.06655 0.92604,0 0.25466,0.06655 0.0463,0.121 -0.46302,0.121 -0.50932,0 -0.71768,-0.05445 -0.46302,-0.121 z m 94.94016,-28.546957 c 0.0127,-0.308224 0.0754,-0.370919 0.15986,-0.159852 0.0764,0.190996 0.067,0.419199 -0.0209,0.507118 -0.0879,0.08792 -0.15046,-0.06835 -0.13897,-0.347266 z"
         id="path5475" /><path
         style="display:none;fill:#989898"
         d="m 189.75172,300.72809 c 0.26339,-0.29105 0.53842,-0.52917 0.61118,-0.52917 0.0728,0 -0.0832,0.23812 -0.3466,0.52917 -0.26339,0.29104 -0.53842,0.52916 -0.61118,0.52916 -0.0728,0 0.0832,-0.23812 0.3466,-0.52916 z m 121.84063,-1.15823 c 0,-0.0549 0.20836,-0.2633 0.46302,-0.46302 0.41964,-0.32911 0.429,-0.31975 0.0999,0.0999 -0.34564,0.44073 -0.56291,0.58089 -0.56291,0.36313 z m 16.7759,-0.49542 -0.50403,-0.59531 0.59532,0.50403 c 0.32742,0.27721 0.59531,0.5451 0.59531,0.59531 0,0.21173 -0.21294,0.0554 -0.6866,-0.50403 z m 26.60152,-42.99479 -0.9118,-0.99219 0.99219,0.9118 c 0.92351,0.84868 1.11384,1.07258 0.9118,1.07258 -0.0442,0 -0.4907,-0.44649 -0.99219,-0.99219 z m -8.068,-8.33438 -1.04588,-1.12448 1.12448,1.04589 c 1.04575,0.97266 1.24606,1.20307 1.04588,1.20307 -0.0432,0 -0.54924,-0.50601 -1.12448,-1.12448 z M 99.131924,245.56246 c -0.642681,-0.65484 -1.108979,-1.19062 -1.036219,-1.19062 0.07276,0 0.658122,0.53578 1.300802,1.19062 0.642683,0.65484 1.108983,1.19063 1.036223,1.19063 -0.0728,0 -0.658126,-0.53579 -1.300806,-1.19063 z m 58.063596,-3.10885 -1.04589,-1.12448 1.12448,1.04588 c 1.04576,0.97266 1.24607,1.20308 1.04589,1.20308 -0.0432,0 -0.54925,-0.50602 -1.12448,-1.12448 z m 181.63467,-3.04271 -0.9118,-0.99219 0.99219,0.9118 c 0.5457,0.50149 0.99218,0.94797 0.99218,0.99219 0,0.20204 -0.22389,0.0117 -1.07257,-0.9118 z m -331.2641276,-1.32292 -0.6414331,-0.7276 0.7276042,0.64143 c 0.4001823,0.35279 0.7276042,0.68021 0.7276042,0.7276 0,0.20751 -0.2142595,0.0386 -0.8137753,-0.64143 z m 27.6689846,-0.0661 c 0.263389,-0.29104 0.53842,-0.52916 0.611181,-0.52916 0.07276,0 -0.08321,0.23812 -0.346598,0.52916 -0.263389,0.29105 -0.53842,0.52917 -0.611181,0.52917 -0.07276,0 0.08321,-0.23812 0.346598,-0.52917 z m 77.092293,-1.78593 c -0.32911,-0.41965 -0.31975,-0.429 0.0999,-0.0999 0.25466,0.19972 0.46302,0.40808 0.46302,0.46302 0,0.21776 -0.21727,0.0776 -0.56292,-0.36312 z m 305.07832,-0.79375 -0.64143,-0.72761 0.7276,0.64144 c 0.68006,0.59951 0.84894,0.81377 0.64143,0.81377 -0.0474,0 -0.37481,-0.32742 -0.7276,-0.7276 z m -306.40123,-0.52917 c -0.32911,-0.41964 -0.31975,-0.429 0.0999,-0.0999 0.44073,0.34564 0.58089,0.56291 0.36313,0.56291 -0.055,0 -0.26331,-0.20836 -0.46302,-0.46302 z m 219.88826,-3.70417 -0.9118,-0.99218 0.99219,0.91179 c 0.5457,0.50149 0.99218,0.94798 0.99218,0.99219 0,0.20204 -0.22389,0.0117 -1.07257,-0.9118 z m -8.068,-8.33437 -1.04588,-1.12448 1.12447,1.04588 c 1.04576,0.97267 1.24607,1.20308 1.04589,1.20308 -0.0432,0 -0.54924,-0.50602 -1.12448,-1.12448 z m -8.07159,-8.33438 -0.91179,-0.99218 0.99218,0.91179 c 0.92351,0.84869 1.11384,1.07258 0.9118,1.07258 -0.0442,0 -0.4907,-0.44648 -0.99219,-0.99219 z M 156.6788,193.83642 c 0.56839,-0.58209 1.09297,-1.05834 1.16573,-1.05834 0.0728,0 -0.33276,0.47625 -0.90115,1.05834 -0.56839,0.58208 -1.09296,1.05833 -1.16572,1.05833 -0.0728,0 0.33275,-0.47625 0.90114,-1.05833 z m 312.30689,-2.05052 c -0.32911,-0.41965 -0.31975,-0.42901 0.0999,-0.0999 0.25466,0.19972 0.46302,0.40808 0.46302,0.46302 0,0.21776 -0.21727,0.0776 -0.56291,-0.36312 z M 98.86734,191.09069 c 0,-0.0549 0.20836,-0.2633 0.463021,-0.46302 0.419644,-0.32911 0.429003,-0.31975 0.0999,0.0999 -0.345644,0.44073 -0.562916,0.58089 -0.562916,0.36313 z m 368.00168,-1.42146 c -0.32911,-0.41964 -0.31975,-0.429 0.0999,-0.0999 0.44073,0.34564 0.58089,0.56291 0.36313,0.56291 -0.0549,0 -0.2633,-0.20836 -0.46302,-0.46302 z"
         id="path5474" /><path
         style="display:none;fill:#7c7c7c"
         d="m 200.80311,325.68015 c 0.25743,-0.0671 0.61462,-0.0627 0.79375,0.01 0.17913,0.0725 -0.0315,0.12736 -0.46806,0.12197 -0.43656,-0.005 -0.58312,-0.0647 -0.32569,-0.13177 z m 83.07917,0 c 0.25743,-0.0671 0.61462,-0.0627 0.79375,0.01 0.17913,0.0725 -0.0315,0.12736 -0.46806,0.12197 -0.43656,-0.005 -0.58312,-0.0647 -0.32569,-0.13177 z m 69.85,0 c 0.25743,-0.0671 0.61462,-0.0627 0.79375,0.01 0.17913,0.0725 -0.0315,0.12736 -0.46806,0.12197 -0.43656,-0.005 -0.58312,-0.0647 -0.32569,-0.13177 z m -345.4853489,-0.53867 2.5141569,-0.0909 v -9.91229 c 0,-5.45177 0.0893,-9.91236 0.198437,-9.91244 0.109141,-8e-5 0.138906,4.49453 0.06615,9.98802 l -0.132292,9.98816 -2.5803021,0.0152 -2.5803025,0.0152 z m 22.8297969,-0.003 c 0.768863,-0.0536 1.959488,-0.0531 2.645834,10e-4 0.686346,0.0543 0.05728,0.0982 -1.397932,0.0975 -1.455208,-6.9e-4 -2.016764,-0.0451 -1.247902,-0.0987 z m 20.637501,0 c 0.768863,-0.0536 1.959488,-0.0531 2.645834,10e-4 0.686345,0.0543 0.05728,0.0982 -1.397932,0.0975 -1.455209,-6.9e-4 -2.016764,-0.0451 -1.247902,-0.0987 z m 24.447468,-0.003 c 2.864345,-0.0427 7.626845,-0.0427 10.583334,-1.3e-4 2.956489,0.0426 0.612934,0.0775 -5.207899,0.0776 -5.820834,7e-5 -8.239779,-0.0348 -5.375435,-0.0775 z m 27.675453,0.003 c 0.76886,-0.0536 1.95948,-0.0531 2.64583,10e-4 0.68635,0.0543 0.0573,0.0982 -1.39793,0.0975 -1.45521,-6.9e-4 -2.01677,-0.0451 -1.2479,-0.0987 z m 25.39113,3e-4 c 0.76398,-0.0534 2.01414,-0.0534 2.77812,0 0.76399,0.0534 0.13891,0.0972 -1.38906,0.0972 -1.52797,0 -2.15305,-0.0437 -1.38906,-0.0972 z m 18.12396,5.9e-4 c 0.69122,-0.0545 1.82232,-0.0545 2.51354,0 0.69122,0.0545 0.12568,0.0991 -1.25677,0.0991 -1.38245,0 -1.948,-0.0446 -1.25677,-0.0991 z m 21.17465,-3.3e-4 c 0.69561,-0.0547 1.76718,-0.054 2.38125,10e-4 0.61407,0.0555 0.0449,0.10023 -1.26476,0.0994 -1.30968,-8.1e-4 -1.81211,-0.0462 -1.11649,-0.10089 z m 87.44568,-5.6e-4 c 0.76886,-0.0536 1.95949,-0.0531 2.64583,10e-4 0.68635,0.0543 0.0573,0.0982 -1.39793,0.0975 -1.45521,-6.9e-4 -2.01676,-0.0451 -1.2479,-0.0987 z m -141.67743,-6.8817 c 2.00961,-0.045 5.2243,-0.0449 7.14375,2.6e-4 1.91945,0.0452 0.27522,0.082 -3.65384,0.0818 -3.92906,-1.5e-4 -5.49952,-0.0371 -3.48991,-0.0821 z m 250.76393,-2.33769 c 0.0127,-0.30823 0.0754,-0.37092 0.15985,-0.15985 0.0764,0.19099 0.067,0.4192 -0.0209,0.50711 -0.0879,0.0879 -0.15045,-0.0684 -0.13896,-0.34726 z m -198.33866,-9.50295 c 9e-5,-5.38427 0.0354,-7.54938 0.0784,-4.81134 0.043,2.73803 0.043,7.14334 -1.5e-4,9.78958 -0.0431,2.64624 -0.0783,0.40603 -0.0783,-4.97824 z m 116.24733,8.6828 c 0.19099,-0.0764 0.4192,-0.067 0.50711,0.0209 0.0879,0.0879 -0.0684,0.15045 -0.34726,0.13896 -0.30823,-0.0127 -0.37092,-0.0754 -0.15985,-0.15985 z m -167.61634,-1.3391 c 1.42638,-0.0477 3.68857,-0.0475 5.02708,4.6e-4 1.33851,0.0479 0.17147,0.0869 -2.59343,0.0867 -2.7649,-2.6e-4 -3.86004,-0.0395 -2.43365,-0.0871 z m 204.50918,-1.0433 c 0.25466,-0.0666 0.67138,-0.0666 0.92604,0 0.25466,0.0666 0.0463,0.121 -0.46302,0.121 -0.50933,0 -0.71768,-0.0544 -0.46302,-0.121 z m -134.13062,-1.6697 c 0,-0.80037 0.0496,-1.12779 0.11023,-0.72761 0.0606,0.40018 0.0606,1.05503 0,1.45521 -0.0606,0.40018 -0.11023,0.0728 -0.11023,-0.7276 z m 111.06661,0.90399 c 0.0127,-0.30823 0.0754,-0.37092 0.15985,-0.15985 0.0764,0.19099 0.067,0.4192 -0.0209,0.50711 -0.0879,0.0879 -0.15045,-0.0684 -0.13896,-0.34726 z m 56.53688,-0.56196 c 0.32912,-0.0633 0.80537,-0.0609 1.05834,0.005 0.25296,0.0662 -0.0163,0.11801 -0.5984,0.11507 -0.58208,-0.003 -0.78905,-0.0571 -0.45994,-0.12041 z m -67.4553,-0.52277 c 0.191,-0.0764 0.4192,-0.067 0.50712,0.0209 0.0879,0.0879 -0.0684,0.15046 -0.34726,0.13897 -0.30823,-0.0127 -0.37092,-0.0754 -0.15986,-0.15985 z m 59.35806,-1.93593 c 0,-0.3638 0.06,-0.51263 0.13345,-0.33073 0.0734,0.1819 0.0734,0.47956 0,0.66146 -0.0734,0.1819 -0.13345,0.0331 -0.13345,-0.33073 z m -48.43964,-0.94809 c 0.0127,-0.30823 0.0754,-0.37092 0.15985,-0.15985 0.0764,0.19099 0.067,0.4192 -0.0209,0.50711 -0.0879,0.0879 -0.15045,-0.0684 -0.13896,-0.34726 z m 57.72946,-1.08735 c 0.25743,-0.0671 0.61462,-0.0627 0.79375,0.01 0.17913,0.0725 -0.0315,0.12736 -0.46806,0.12197 -0.43656,-0.005 -0.58312,-0.0647 -0.32569,-0.13178 z m -4.28363,-1.82307 c 0.0127,-0.30822 0.0754,-0.37092 0.15986,-0.15985 0.0764,0.191 0.067,0.4192 -0.0209,0.50712 -0.0879,0.0879 -0.15046,-0.0684 -0.13897,-0.34727 z m -4.7625,-0.52916 c 0.0127,-0.30823 0.0754,-0.37092 0.15986,-0.15986 0.0764,0.191 0.067,0.4192 -0.0209,0.50712 -0.0879,0.0879 -0.15046,-0.0684 -0.13897,-0.34726 z m -144.81412,-3.73656 c 0.32742,-0.0631 0.8632,-0.0631 1.19063,0 0.32742,0.0631 0.0595,0.11467 -0.59532,0.11467 -0.65484,0 -0.92273,-0.0516 -0.59531,-0.11467 z M 363.80771,298.876 c 0,-1.23692 0.0456,-1.74294 0.10128,-1.12448 0.0557,0.61847 0.0557,1.6305 0,2.24896 -0.0557,0.61846 -0.10128,0.11245 -0.10128,-1.12448 z m -79.51706,1.67135 c 0.191,-0.0764 0.4192,-0.067 0.50712,0.0209 0.0879,0.0879 -0.0684,0.15046 -0.34726,0.13897 -0.30823,-0.0127 -0.37092,-0.0754 -0.15986,-0.15985 z m 61.47472,-0.34843 c 0,-0.3638 0.0601,-0.51263 0.13346,-0.33073 0.0734,0.1819 0.0734,0.47956 0,0.66146 -0.0734,0.1819 -0.13346,0.0331 -0.13346,-0.33073 z M 19.558484,257.94778 c 0.254661,-0.0666 0.67138,-0.0666 0.926042,0 0.254661,0.0665 0.0463,0.121 -0.463021,0.121 -0.509323,0 -0.717683,-0.0545 -0.463021,-0.121 z m 2.910417,0 c 0.254661,-0.0666 0.67138,-0.0666 0.926041,0 0.254662,0.0665 0.0463,0.121 -0.463021,0.121 -0.509322,0 -0.717682,-0.0545 -0.46302,-0.121 z m 105.704129,-0.005 c 0.32912,-0.0633 0.80537,-0.0609 1.05833,0.005 0.25297,0.0662 -0.0163,0.118 -0.59839,0.11506 -0.58209,-0.003 -0.78906,-0.0571 -0.45994,-0.1204 z m 3.30421,0.005 c 0.25466,-0.0666 0.67138,-0.0666 0.92604,0 0.25466,0.0665 0.0463,0.121 -0.46302,0.121 -0.50932,0 -0.71768,-0.0545 -0.46302,-0.121 z m 303.61247,-0.005 c 0.32912,-0.0633 0.80537,-0.0609 1.05833,0.005 0.25296,0.0662 -0.0163,0.118 -0.5984,0.11506 -0.58208,-0.003 -0.78905,-0.0571 -0.45993,-0.1204 z m 3.175,0 c 0.32912,-0.0633 0.80537,-0.0609 1.05833,0.005 0.25296,0.0662 -0.0163,0.118 -0.5984,0.11506 -0.58208,-0.003 -0.78905,-0.0571 -0.45993,-0.1204 z m -518.204227,-1.06849 c 1.556284,-0.0467 4.175659,-0.0469 5.820834,-3.7e-4 1.645174,0.0465 0.371851,0.0847 -2.829607,0.0849 -3.201458,2e-4 -4.54751,-0.0378 -2.991227,-0.0845 z m 269.360507,-1.5e-4 c 1.56435,-0.0468 4.12419,-0.0468 5.68854,0 1.56435,0.0468 0.28443,0.0851 -2.84427,0.0851 -3.1287,0 -4.40862,-0.0383 -2.84427,-0.0851 z m 63.77896,-1.5e-4 c 1.57226,-0.0469 4.07258,-0.0467 5.55626,4e-4 1.48367,0.0471 0.19728,0.0854 -2.85866,0.0852 -3.05593,-2.1e-4 -4.26985,-0.0387 -2.6976,-0.0856 z m 43.89179,3e-4 c 1.55629,-0.0467 4.17566,-0.0469 5.82084,-3.7e-4 1.64517,0.0465 0.37185,0.0847 -2.82961,0.0849 -3.20146,2e-4 -4.54751,-0.0378 -2.99123,-0.0845 z m 10.65859,-25.86417 c 2e-5,-13.09688 0.0323,-18.41595 0.0716,-11.82015 0.0394,6.59579 0.0394,17.31142 -3e-5,23.8125 -0.0394,6.50108 -0.0716,1.10452 -0.0716,-11.99235 z m -177.99879,12.37675 c 0.4697,-0.0585 1.30314,-0.0594 1.85209,-0.002 0.54895,0.0573 0.16465,0.1051 -0.854,0.10627 -1.01864,0.001 -1.46778,-0.0457 -0.99809,-0.10413 z m 304.55787,0.0102 c 0.19099,-0.0764 0.4192,-0.067 0.50712,0.0209 0.0879,0.0879 -0.0684,0.15046 -0.34727,0.13897 -0.30822,-0.0127 -0.37092,-0.0754 -0.15985,-0.15986 z M 40.41531,226.49041 c 0.0127,-0.30822 0.07539,-0.37092 0.159853,-0.15985 0.07643,0.19099 0.06703,0.4192 -0.02089,0.50712 -0.08792,0.0879 -0.150452,-0.0684 -0.138964,-0.34727 z M 2.4208789,203.89058 c 0,-12.44203 0.032357,-17.53195 0.071903,-11.31093 0.039547,6.22101 0.039547,16.40086 0,22.62187 -0.039547,6.22102 -0.071903,1.1311 -0.071903,-11.31094 z M 479.35907,221.19874 c 0.0127,-0.30822 0.0754,-0.37091 0.15986,-0.15985 0.0764,0.191 0.067,0.4192 -0.0209,0.50712 -0.0879,0.0879 -0.15045,-0.0684 -0.13897,-0.34727 z M 87.796616,220.82392 c 0,-0.3638 0.06005,-0.51263 0.133453,-0.33073 0.0734,0.1819 0.0734,0.47956 0,0.66146 -0.0734,0.1819 -0.133453,0.0331 -0.133453,-0.33073 z m 16.647864,-0.68351 c 0.0127,-0.30822 0.0754,-0.37092 0.15985,-0.15985 0.0764,0.19099 0.067,0.4192 -0.0209,0.50712 -0.0879,0.0879 -0.15045,-0.0684 -0.13896,-0.34727 z m 359.56876,-3.96875 c 0.0127,-0.30822 0.0754,-0.37092 0.15985,-0.15985 0.0764,0.19099 0.067,0.4192 -0.0209,0.50712 -0.0879,0.0879 -0.15045,-0.0684 -0.13896,-0.34727 z M 87.775728,215.64249 c 0.0127,-0.30822 0.07539,-0.37091 0.159853,-0.15985 0.07643,0.191 0.06703,0.4192 -0.02089,0.50712 -0.08792,0.0879 -0.150453,-0.0683 -0.138965,-0.34727 z m 16.668752,0 c 0.0127,-0.30822 0.0754,-0.37091 0.15985,-0.15985 0.0764,0.191 0.067,0.4192 -0.0209,0.50712 -0.0879,0.0879 -0.15045,-0.0683 -0.13896,-0.34727 z m 374.91459,-0.26458 c 0.0127,-0.30822 0.0754,-0.37092 0.15986,-0.15985 0.0764,0.19099 0.067,0.4192 -0.0209,0.50712 -0.0879,0.0879 -0.15045,-0.0683 -0.13897,-0.34727 z m -588.07937,-29.3467 c 2.6e-4,-2.7649 0.0395,-3.86004 0.0871,-2.43365 0.0477,1.42638 0.0475,3.68857 -4.6e-4,5.02708 -0.0479,1.33851 -0.0869,0.17147 -0.0867,-2.59343 z m 235.56733,-7.71585 c 0.1819,-0.0734 0.47956,-0.0734 0.66146,0 0.1819,0.0734 0.0331,0.13345 -0.33073,0.13345 -0.3638,0 -0.51263,-0.0601 -0.33073,-0.13345 z m 6.61458,0 c 0.1819,-0.0734 0.47956,-0.0734 0.66146,0 0.1819,0.0734 0.0331,0.13345 -0.33073,0.13345 -0.3638,0 -0.51263,-0.0601 -0.33073,-0.13345 z m 300.31863,-0.006 c 0.191,-0.0764 0.4192,-0.067 0.50712,0.0209 0.0879,0.0879 -0.0683,0.15045 -0.34727,0.13897 -0.30822,-0.0127 -0.37092,-0.0754 -0.15985,-0.15986 z m 6.35,0 c 0.191,-0.0764 0.4192,-0.067 0.50712,0.0209 0.0879,0.0879 -0.0684,0.15045 -0.34727,0.13897 -0.30822,-0.0127 -0.37092,-0.0754 -0.15985,-0.15986 z M 243.45918,83.108292 c 1e-5,-25.320626 0.0311,-35.639875 0.0691,-22.931666 0.038,12.708209 0.038,33.425084 -1e-5,46.037504 -0.038,12.61241 -0.0691,2.21479 -0.0691,-23.105838 z m -8.99586,0 c 0,-25.029584 0.0311,-35.229777 0.0691,-22.667095 0.038,12.562681 0.038,33.041431 0,45.508333 -0.038,12.4669 -0.0691,2.18835 -0.0691,-22.841238 z m -86.96225,16.620301 c 0.19099,-0.07643 0.4192,-0.06703 0.50711,0.02089 0.0879,0.08792 -0.0684,0.150453 -0.34726,0.138964 -0.30823,-0.0127 -0.37092,-0.07539 -0.15985,-0.159852 z m 3.175,-0.264583 c 0.19099,-0.07643 0.4192,-0.06703 0.50711,0.02089 0.0879,0.08792 -0.0683,0.150453 -0.34726,0.138964 -0.30823,-0.0127 -0.37092,-0.07539 -0.15985,-0.159852 z m 66.14583,0 c 0.191,-0.07643 0.4192,-0.06703 0.50712,0.02089 0.0879,0.08792 -0.0684,0.150453 -0.34727,0.138964 -0.30822,-0.0127 -0.37092,-0.07539 -0.15985,-0.159852 z m -62.44167,-0.264584 c 0.191,-0.07643 0.4192,-0.06703 0.50712,0.02089 0.0879,0.08792 -0.0684,0.150453 -0.34726,0.138965 -0.30823,-0.0127 -0.37092,-0.07539 -0.15986,-0.159853 z m 58.45638,0.0055 c 0.18191,-0.0734 0.47956,-0.0734 0.66146,0 0.1819,0.0734 0.0331,0.133453 -0.33073,0.133453 -0.3638,0 -0.51263,-0.06005 -0.33073,-0.133453 z m -54.23958,-0.264583 c 0.1819,-0.0734 0.47956,-0.0734 0.66146,0 0.1819,0.0734 0.0331,0.133452 -0.33073,0.133452 -0.3638,0 -0.51263,-0.06005 -0.33073,-0.133452 z m 49.74167,0 c 0.1819,-0.0734 0.47956,-0.0734 0.66146,0 0.1819,0.0734 0.0331,0.133452 -0.33073,0.133452 -0.3638,0 -0.51263,-0.06005 -0.33073,-0.133452 z m -44.31268,-0.272709 c 0.25743,-0.06708 0.61462,-0.06267 0.79375,0.0098 0.17914,0.07248 -0.0315,0.127362 -0.46805,0.12197 -0.43657,-0.0054 -0.58313,-0.06469 -0.3257,-0.131774 z m 38.88872,9.7e-4 c 0.25466,-0.06655 0.67138,-0.06655 0.92604,0 0.25466,0.06655 0.0463,0.121 -0.46302,0.121 -0.50932,0 -0.71768,-0.05445 -0.46302,-0.121 z m -31.48178,-0.272059 c 0.40218,-0.06082 0.9975,-0.05919 1.32292,0.0036 0.32542,0.0628 -0.004,0.112561 -0.73125,0.110574 -0.7276,-0.002 -0.99385,-0.05337 -0.59167,-0.114185 z m 23.54792,0 c 0.40218,-0.06082 0.99749,-0.05919 1.32291,0.0036 0.32542,0.0628 -0.004,0.112561 -0.73124,0.110574 -0.7276,-0.002 -0.99386,-0.05337 -0.59167,-0.114185 z m 23.16394,-6.605464 c 0.19099,-0.07643 0.4192,-0.06703 0.50712,0.02089 0.0879,0.08792 -0.0684,0.150453 -0.34727,0.138964 -0.30822,-0.0127 -0.37092,-0.07539 -0.15985,-0.159852 z M 152.26357,91.52651 c 0.19099,-0.07643 0.4192,-0.06703 0.50711,0.02089 0.0879,0.08792 -0.0684,0.150452 -0.34726,0.138964 -0.30823,-0.0127 -0.37092,-0.07539 -0.15985,-0.159852 z m 61.63138,0.0055 c 0.1819,-0.0734 0.47956,-0.0734 0.66146,0 0.1819,0.0734 0.0331,0.133452 -0.33073,0.133452 -0.3638,0 -0.51263,-0.06005 -0.33073,-0.133452 z m -57.54184,-0.272709 c 0.25743,-0.06708 0.61462,-0.06267 0.79375,0.0098 0.17913,0.07248 -0.0315,0.127362 -0.46806,0.12197 -0.43656,-0.0054 -0.58312,-0.06469 -0.32569,-0.131774 z m 52.65208,0 c 0.25743,-0.06708 0.61462,-0.06267 0.79375,0.0098 0.17913,0.07248 -0.0315,0.127362 -0.46805,0.12197 -0.43657,-0.0054 -0.58313,-0.06469 -0.3257,-0.131774 z M 162.0397,90.990954 c 0.32912,-0.06329 0.80537,-0.06088 1.05833,0.0053 0.25297,0.06622 -0.0163,0.118004 -0.5984,0.115067 -0.58208,-0.0029 -0.78905,-0.05712 -0.45993,-0.120406 z m 40.21667,0 c 0.32911,-0.06329 0.80536,-0.06088 1.05833,0.0053 0.25296,0.06622 -0.0163,0.118004 -0.5984,0.115067 -0.58208,-0.0029 -0.78905,-0.05712 -0.45993,-0.120406 z m -30.82705,-0.270195 c 0.54571,-0.05708 1.43867,-0.05708 1.98438,0 0.5457,0.05708 0.0992,0.103787 -0.99219,0.103787 -1.09141,0 -1.53789,-0.0467 -0.99219,-0.103787 z m 19.45387,-0.0013 c 0.62231,-0.05589 1.57481,-0.05511 2.11667,0.0017 0.54185,0.05685 0.0327,0.102583 -1.13147,0.101622 -1.16417,-9.61e-4 -1.60751,-0.04748 -0.9852,-0.103369 z m -24.06754,-16.65542 c 0.191,-0.07643 0.4192,-0.06703 0.50712,0.02089 0.0879,0.08792 -0.0683,0.150453 -0.34727,0.138965 -0.30822,-0.0127 -0.37092,-0.07539 -0.15985,-0.159853 z m -3.43958,-0.264583 c 0.19099,-0.07643 0.4192,-0.06703 0.50711,0.02089 0.0879,0.08792 -0.0684,0.150453 -0.34726,0.138964 -0.30823,-0.01269 -0.37092,-0.07539 -0.15985,-0.159852 z m -4.9063,-0.267197 c 0.25743,-0.06708 0.61462,-0.06267 0.79375,0.0098 0.17914,0.07248 -0.0315,0.127362 -0.46805,0.12197 -0.43657,-0.0054 -0.58313,-0.06469 -0.3257,-0.131774 z m -8.33941,-0.272627 c 0.47295,-0.05869 1.24685,-0.05869 1.71979,0 0.47295,0.05869 0.086,0.106712 -0.85989,0.106712 -0.94589,0 -1.33284,-0.04802 -0.8599,-0.106712 z m 11.65821,-7.133093 c 0.19099,-0.07643 0.4192,-0.06703 0.50711,0.02089 0.0879,0.08792 -0.0684,0.150453 -0.34726,0.138965 -0.30823,-0.0127 -0.37092,-0.07539 -0.15985,-0.159853 z m -3.70417,-0.264583 c 0.191,-0.07643 0.4192,-0.06703 0.50712,0.02089 0.0879,0.08792 -0.0684,0.150453 -0.34727,0.138964 -0.30822,-0.01269 -0.37092,-0.07539 -0.15985,-0.159852 z m -4.90629,-0.267197 c 0.25743,-0.06708 0.61462,-0.06267 0.79375,0.0098 0.17913,0.07248 -0.0315,0.127362 -0.46806,0.12197 -0.43656,-0.0054 -0.58312,-0.06469 -0.32569,-0.131774 z m -5.94163,-0.26197 c 0.191,-0.07643 0.4192,-0.06703 0.50712,0.02089 0.0879,0.08792 -0.0683,0.150453 -0.34726,0.138965 -0.30823,-0.0127 -0.37092,-0.07539 -0.15986,-0.159853 z m 15.46159,-31.238511 c 12.47841,-0.03802 32.89763,-0.03802 45.37604,0 12.47842,0.03802 2.26881,0.06912 -22.68802,0.06912 -24.95682,0 -35.16643,-0.03111 -22.68802,-0.06912 z m -0.39687,-8.995834 c 12.69669,-0.03799 33.4731,-0.03799 46.16979,0 12.69669,0.03799 2.30849,0.06907 -23.0849,0.06907 -25.39338,0 -35.78159,-0.03108 -23.08489,-0.06907 z"
         id="path5473" /><path
         style="display:none;fill:#585858"
         d="m 212.37359,321.23329 c 0.34178,-0.3638 0.68094,-0.66145 0.7537,-0.66145 0.0728,0 -0.14734,0.29765 -0.48911,0.66145 -0.34178,0.36381 -0.68094,0.66146 -0.7537,0.66146 -0.0728,0 0.14734,-0.29765 0.48911,-0.66146 z m -4.10104,-3.0427 c 0.26339,-0.29105 0.53842,-0.52917 0.61118,-0.52917 0.0728,0 -0.0832,0.23812 -0.34659,0.52917 -0.26339,0.29104 -0.53842,0.52916 -0.61119,0.52916 -0.0728,0 0.0832,-0.23812 0.3466,-0.52916 z m 103.55063,-9.45886 c -0.32911,-0.41964 -0.31975,-0.429 0.0999,-0.0999 0.25466,0.19972 0.46302,0.40808 0.46302,0.46302 0,0.21776 -0.21727,0.0776 -0.56292,-0.36313 z m 16.43792,0.36313 c 0,-0.0549 0.20836,-0.2633 0.46302,-0.46302 0.41964,-0.32911 0.429,-0.31975 0.0999,0.0999 -0.34564,0.44073 -0.56291,0.58089 -0.56291,0.36313 z m -12.43542,-6.87917 c 0,-0.0549 0.20836,-0.2633 0.46302,-0.46302 0.41965,-0.32911 0.429,-0.31975 0.0999,0.0999 -0.34565,0.44073 -0.56292,0.58089 -0.56292,0.36313 z m 8.43292,-0.36313 c -0.32911,-0.41964 -0.31975,-0.429 0.0999,-0.0999 0.25466,0.19972 0.46302,0.40808 0.46302,0.46302 0,0.21776 -0.21727,0.0776 -0.56291,-0.36313 z m 32.01458,-44.45 c -0.3291,-0.41964 -0.31975,-0.429 0.0999,-0.0999 0.44073,0.34564 0.58088,0.56292 0.36312,0.56292 -0.0549,0 -0.2633,-0.20836 -0.46302,-0.46303 z m -7.38883,-7.67291 -0.91179,-0.99219 0.99218,0.9118 c 0.54571,0.50149 0.99219,0.94797 0.99219,0.99219 0,0.20204 -0.22389,0.0117 -1.07258,-0.9118 z m -353.0846703,-1.98438 -1.0458841,-1.12448 1.1244792,1.04589 c 0.6184635,0.57523 1.1244792,1.08125 1.1244792,1.12448 0,0.20017 -0.2304125,-1.3e-4 -1.2030743,-1.04589 z m 50.1509923,1.02459 c 0,-0.0549 0.20836,-0.2633 0.463021,-0.46302 0.419644,-0.32911 0.429002,-0.31975 0.09989,0.0999 -0.345644,0.44073 -0.562916,0.58089 -0.562916,0.36313 z m 1.719792,-1.75219 c 0.263389,-0.29104 0.53842,-0.52917 0.611181,-0.52917 0.07276,0 -0.08321,0.23813 -0.346598,0.52917 -0.263389,0.29104 -0.53842,0.52917 -0.611181,0.52917 -0.07276,0 0.08321,-0.23813 0.346598,-0.52917 z m 420.279576,-1.38906 c 0.64877,-0.69123 1.21431,-1.25677 1.25678,-1.25677 0.19867,0 -0.0114,0.23755 -1.17957,1.33397 l -1.25677,1.17957 z m -127.00319,-4.10105 -0.91179,-0.99218 0.99218,0.91179 c 0.54571,0.50149 0.99219,0.94798 0.99219,0.99219 0,0.20204 -0.22389,0.0117 -1.07258,-0.9118 z m -8.06799,-8.33437 -1.04589,-1.12448 1.12448,1.04588 c 1.04576,0.97267 1.24606,1.20308 1.04589,1.20308 -0.0432,0 -0.54925,-0.50602 -1.12448,-1.12448 z m -8.07159,-8.33438 -0.9118,-0.99218 0.99219,0.91179 c 0.5457,0.50149 0.99219,0.94798 0.99219,0.99219 0,0.20204 -0.2239,0.0117 -1.07258,-0.9118 z m -7.9375,-8.20208 -0.9118,-0.99219 0.99219,0.9118 c 0.5457,0.50149 0.99219,0.94797 0.99219,0.99219 0,0.20204 -0.2239,0.0117 -1.07258,-0.9118 z m -8.068,-8.33437 -1.04588,-1.12448 1.12448,1.04588 c 1.04575,0.97266 1.24606,1.20307 1.04588,1.20307 -0.0432,0 -0.54924,-0.50601 -1.12448,-1.12447 z m 108.75621,-7.60678 c 0.56838,-0.58208 1.09296,-1.05833 1.16572,-1.05833 0.0728,0 -0.33275,0.47625 -0.90114,1.05833 -0.56839,0.58209 -1.09297,1.05834 -1.16573,1.05834 -0.0728,0 0.33276,-0.47625 0.90115,-1.05834 z m -305.59376,-1.05833 c 0.56839,-0.58208 1.09296,-1.05833 1.16572,-1.05833 0.0728,0 -0.33275,0.47625 -0.90114,1.05833 -0.56839,0.58208 -1.09297,1.05833 -1.16573,1.05833 -0.0728,0 0.33276,-0.47625 0.90115,-1.05833 z m 46.56666,-7.67292 c 0.26339,-0.29104 0.53842,-0.52916 0.61118,-0.52916 0.0728,0 -0.0832,0.23812 -0.34659,0.52916 -0.26339,0.29105 -0.53842,0.52917 -0.61118,0.52917 -0.0728,0 0.0832,-0.23812 0.34659,-0.52917 z m 309.4102,-1.25677 -0.64144,-0.7276 0.72761,0.64143 c 0.40018,0.35279 0.7276,0.68021 0.7276,0.72761 0,0.2075 -0.21426,0.0386 -0.81377,-0.64144 z m -228.57999,-53.0827 c 0,-0.0549 0.20836,-0.26331 0.46303,-0.46303 0.41964,-0.3291 0.429,-0.31974 0.0999,0.0999 -0.34564,0.44073 -0.56292,0.58089 -0.56292,0.36313 z M 131.01422,29.000999 c 0.26339,-0.291041 0.53842,-0.529166 0.61118,-0.529166 0.0728,0 -0.0832,0.238125 -0.3466,0.529166 -0.26339,0.291042 -0.53842,0.529167 -0.61118,0.529167 -0.0728,0 0.0832,-0.238125 0.3466,-0.529167 z"
         id="path5472" /><path
         style="display:none;fill:#3b3b3b"
         d="m 29.486536,315.01549 c -0.03978,-5.52985 0.01697,-10.05423 0.126115,-10.05417 0.10914,5e-5 0.198437,4.52447 0.198437,10.05427 0,5.52979 -0.05675,10.05416 -0.126114,10.05416 -0.06936,0 -0.15866,-4.52442 -0.198438,-10.05426 z m 26.112487,-4.10095 c 4.2e-5,-7.85812 0.03376,-11.03464 0.07494,-7.05893 0.04118,3.97572 0.04114,10.40509 -7.6e-5,14.2875 -0.04122,3.88242 -0.07491,0.62956 -0.07486,-7.22857 z m 90.487507,0 c 4e-5,-7.85812 0.0338,-11.03464 0.0749,-7.05893 0.0412,3.97572 0.0411,10.40509 -8e-5,14.2875 -0.0412,3.88242 -0.0749,0.62956 -0.0749,-7.22857 z m 5.0239,4.10105 c 0,-5.60256 0.0351,-7.89451 0.0779,-5.09323 0.0428,2.80127 0.0428,7.38518 0,10.18645 -0.0429,2.80128 -0.0779,0.50933 -0.0779,-5.09322 z m 108.74701,-4.23334 c 0,-7.93088 0.0337,-11.17534 0.0748,-7.20989 0.0412,3.96544 0.0412,10.45435 0,14.41979 -0.0412,3.96544 -0.0748,0.72099 -0.0748,-7.2099 z m -69.99346,10.3849 -0.64143,-0.72761 0.72761,0.64144 c 0.68005,0.59951 0.84893,0.81377 0.64143,0.81377 -0.0474,0 -0.37482,-0.32742 -0.72761,-0.7276 z m 125.1342,-1.5875 c -0.32911,-0.41965 -0.31975,-0.429 0.0999,-0.0999 0.25466,0.19972 0.46302,0.40808 0.46302,0.46302 0,0.21777 -0.21727,0.0776 -0.56292,-0.36312 z m 43.55771,-0.0661 c 0.26339,-0.29104 0.53842,-0.52916 0.61118,-0.52916 0.0728,0 -0.0832,0.23812 -0.3466,0.52916 -0.26339,0.29104 -0.53842,0.52917 -0.61118,0.52917 -0.0728,0 0.0832,-0.23813 0.3466,-0.52917 z m -49.53731,-2.11666 c 0,-0.65485 0.0516,-0.92274 0.11466,-0.59532 0.0631,0.32743 0.0631,0.86321 0,1.19063 -0.0631,0.32742 -0.11466,0.0595 -0.11466,-0.59531 z m 22.48424,-0.1323 c 0.003,-0.58208 0.0571,-0.78905 0.12041,-0.45993 0.0633,0.32912 0.0609,0.80537 -0.005,1.05833 -0.0662,0.25297 -0.11801,-0.0163 -0.11507,-0.5984 z m -47.4902,-2.1715 c 0.32912,-0.0633 0.80537,-0.0609 1.05833,0.005 0.25297,0.0662 -0.0163,0.118 -0.5984,0.11507 -0.58208,-0.003 -0.78905,-0.0571 -0.45993,-0.12041 z m -67.33897,-4.1785 c 0.003,-0.58208 0.0571,-0.78905 0.12041,-0.45993 0.0633,0.32912 0.0609,0.80537 -0.005,1.05833 -0.0662,0.25297 -0.11801,-0.0163 -0.11507,-0.5984 z m 80.18402,-0.79375 c 0.001,-0.87312 0.0509,-1.19841 0.10976,-0.72286 0.0589,0.47555 0.0577,1.18992 -0.003,1.5875 -0.0604,0.39757 -0.10855,0.008 -0.10706,-0.86464 z m 48.38834,0 c 0.005,-0.43656 0.0647,-0.58312 0.13178,-0.32569 0.0671,0.25743 0.0627,0.61462 -0.01,0.79375 -0.0725,0.17913 -0.12736,-0.0315 -0.12197,-0.46806 z m 17.25349,-0.46302 -0.50403,-0.59531 0.59532,0.50403 c 0.55944,0.47366 0.71576,0.6866 0.50402,0.6866 -0.0502,0 -0.31809,-0.26789 -0.59531,-0.59532 z m -42.50663,-0.90283 c 0.1819,-0.0734 0.47956,-0.0734 0.66146,0 0.1819,0.0734 0.0331,0.13345 -0.33073,0.13345 -0.3638,0 -0.51263,-0.06 -0.33073,-0.13345 z m -45.89929,-2.73519 c 0,-0.65484 0.0516,-0.92273 0.11466,-0.59531 0.0631,0.32742 0.0631,0.8632 0,1.19062 -0.0631,0.32743 -0.11466,0.0595 -0.11466,-0.59531 z m 71.40721,-0.26458 c 0,-0.3638 0.06,-0.51263 0.13345,-0.33073 0.0734,0.1819 0.0734,0.47956 0,0.66146 -0.0734,0.1819 -0.13345,0.0331 -0.13345,-0.33073 z m 4.74161,-1.74184 c 0.0127,-0.30823 0.0754,-0.37092 0.15986,-0.15985 0.0764,0.19099 0.067,0.4192 -0.0209,0.50711 -0.0879,0.0879 -0.15046,-0.0684 -0.13897,-0.34726 z M 193.98505,303.6385 c 0.26339,-0.29104 0.53842,-0.52916 0.61118,-0.52916 0.0728,0 -0.0832,0.23812 -0.34659,0.52916 -0.26339,0.29104 -0.53843,0.52917 -0.61119,0.52917 -0.0728,0 0.0832,-0.23813 0.3466,-0.52917 z m 151.78032,-2.38125 c 0,-0.3638 0.0601,-0.51263 0.13346,-0.33073 0.0734,0.1819 0.0734,0.47956 0,0.66146 -0.0734,0.1819 -0.13346,0.0331 -0.13346,-0.33073 z m 7.96187,-0.1977 c 1.85539,-0.0455 4.89149,-0.0455 6.74688,0 1.85539,0.0455 0.33734,0.0827 -3.37344,0.0827 -3.71078,0 -5.22883,-0.0372 -3.37344,-0.0827 z m -141.3874,-0.5299 c -0.3291,-0.41965 -0.31974,-0.429 0.0999,-0.0999 0.25466,0.19972 0.46302,0.40808 0.46302,0.46302 0,0.21777 -0.21727,0.0776 -0.56292,-0.36312 z m 133.66923,-3.39549 c 0.0127,-0.30822 0.0754,-0.37092 0.15985,-0.15985 0.0764,0.191 0.067,0.4192 -0.0209,0.50712 -0.0879,0.0879 -0.15045,-0.0684 -0.13896,-0.34727 z m -26.80995,-0.81464 c 0.1819,-0.0734 0.47956,-0.0734 0.66146,0 0.1819,0.0734 0.0331,0.13346 -0.33073,0.13346 -0.3638,0 -0.51263,-0.0601 -0.33073,-0.13346 z m 1.5875,0 c 0.1819,-0.0734 0.47956,-0.0734 0.66146,0 0.1819,0.0734 0.0331,0.13346 -0.33073,0.13346 -0.3638,0 -0.51263,-0.0601 -0.33073,-0.13346 z M 21.013692,257.95494 c 0.181901,-0.0734 0.479558,-0.0734 0.661459,0 0.181901,0.0734 0.03307,0.13345 -0.33073,0.13345 -0.363802,0 -0.51263,-0.06 -0.330729,-0.13345 z m 109.008338,0 c 0.1819,-0.0734 0.47956,-0.0734 0.66146,0 0.1819,0.0734 0.0331,0.13345 -0.33073,0.13345 -0.3638,0 -0.51263,-0.06 -0.33073,-0.13345 z m 227.81099,-0.0165 c 0.47555,-0.0589 1.18993,-0.0577 1.5875,0.003 0.39758,0.0604 0.008,0.10855 -0.86463,0.10706 -0.87312,-10e-4 -1.19841,-0.0509 -0.72287,-0.10976 z m 79.10569,0.0165 c 0.1819,-0.0734 0.47955,-0.0734 0.66145,0 0.1819,0.0734 0.0331,0.13345 -0.33073,0.13345 -0.3638,0 -0.51263,-0.06 -0.33072,-0.13345 z m -411.410565,-0.2701 c 0.190997,-0.0764 0.4192,-0.067 0.507119,0.0209 0.08792,0.0879 -0.06835,0.15046 -0.347266,0.13897 -0.308225,-0.0127 -0.370919,-0.0754 -0.159853,-0.15986 z m 109.272925,0 c 0.19099,-0.0764 0.41919,-0.067 0.50711,0.0209 0.0879,0.0879 -0.0683,0.15046 -0.34726,0.13897 -0.30823,-0.0127 -0.37092,-0.0754 -0.15985,-0.15986 z m -204.078097,-33.95051 0.0017,-31.08854 10.980209,-0.004 10.980208,-0.004 -10.91297,0.0734 -10.91297,0.0734 -0.06889,31.01949 -0.06889,31.0195 z m 420.147547,27.97969 -1.04588,-1.12448 1.12448,1.04589 c 1.04575,0.97266 1.24606,1.20307 1.04588,1.20307 -0.0432,0 -0.54924,-0.50601 -1.12448,-1.12448 z m -191.39271,-6.17361 c 0.0127,-0.30822 0.0754,-0.37092 0.15986,-0.15985 0.0764,0.191 0.067,0.4192 -0.0209,0.50712 -0.0879,0.0879 -0.15045,-0.0683 -0.13897,-0.34727 z m 183.45521,-2.02847 -1.04588,-1.12448 1.12448,1.04588 c 1.04575,0.97267 1.24606,1.20308 1.04588,1.20308 -0.0432,0 -0.54924,-0.50602 -1.12448,-1.12448 z m -214.48195,-0.1146 c 0.19099,-0.0764 0.41919,-0.067 0.50711,0.0209 0.0879,0.0879 -0.0684,0.15046 -0.34726,0.13897 -0.30823,-0.0127 -0.37092,-0.0754 -0.15985,-0.15986 z m 4.21679,0.006 c 0.1819,-0.0734 0.47956,-0.0734 0.66146,0 0.1819,0.0734 0.0331,0.13345 -0.33073,0.13345 -0.3638,0 -0.51263,-0.06 -0.33073,-0.13345 z m 20.02974,-5.18259 -1.04588,-1.12448 1.12448,1.04589 c 1.04575,0.97266 1.24606,1.20307 1.04588,1.20307 -0.0432,0 -0.54924,-0.50601 -1.12448,-1.12448 z m 182.29792,-2.91041 -1.04588,-1.12448 1.12448,1.04588 c 1.04575,0.97266 1.24606,1.20307 1.04588,1.20307 -0.0432,0 -0.54924,-0.50601 -1.12448,-1.12447 z m 121.85308,0.19843 c 0.49366,-0.50932 0.95709,-0.92604 1.02985,-0.92604 0.0728,0 -0.27161,0.41672 -0.76527,0.92604 -0.49365,0.50933 -0.95708,0.92604 -1.02984,0.92604 -0.0728,0 0.27161,-0.41671 0.76526,-0.92604 z m -238.56996,-5.09302 c 3.32053,-0.042 8.67835,-0.042 11.90625,1.1e-4 3.2279,0.0421 0.5111,0.0764 -6.03734,0.0764 -6.54844,-6e-5 -9.18945,-0.0345 -5.86891,-0.0765 z m -231.55286,-2.71219 c 0,-0.3638 0.06005,-0.51263 0.133452,-0.33072 0.0734,0.1819 0.0734,0.47955 0,0.66145 -0.0734,0.18191 -0.133452,0.0331 -0.133452,-0.33073 z m 340.06766,-0.85989 -1.04588,-1.12448 1.12448,1.04588 c 1.04575,0.97267 1.24606,1.20308 1.04588,1.20308 -0.0432,0 -0.54924,-0.50602 -1.12448,-1.12448 z M 2.315309,226.75499 c 0.012696,-0.30822 0.07539,-0.37091 0.1598524,-0.15985 0.07643,0.191 0.067031,0.4192 -0.020888,0.50712 -0.087919,0.0879 -0.1504527,-0.0684 -0.1389644,-0.34727 z m 392.641681,-5.55625 c 0.0127,-0.30822 0.0754,-0.37091 0.15985,-0.15985 0.0764,0.191 0.067,0.4192 -0.0209,0.50712 -0.0879,0.0879 -0.15045,-0.0684 -0.13896,-0.34727 z m 84.43278,-1.30086 c 0.005,-0.43657 0.0647,-0.58313 0.13177,-0.3257 0.0671,0.25743 0.0627,0.61462 -0.01,0.79375 -0.0725,0.17913 -0.12737,-0.0315 -0.12197,-0.46805 z m -391.544228,-1.5875 c 9.61e-4,-1.16417 0.04748,-1.60751 0.103369,-0.9852 0.05589,0.62231 0.05511,1.57481 -0.0017,2.11667 -0.05685,0.54186 -0.102583,0.0327 -0.101622,-1.13147 z m 231.010398,0.33073 -1.04588,-1.12448 1.12447,1.04588 c 1.04576,0.97266 1.24607,1.20307 1.04589,1.20307 -0.0432,0 -0.54924,-0.50601 -1.12448,-1.12447 z m 160.53383,-2.18282 c 0.005,-0.43656 0.0647,-0.58312 0.13177,-0.32569 0.0671,0.25743 0.0627,0.61462 -0.01,0.79375 -0.0725,0.17913 -0.12737,-0.0315 -0.12197,-0.46806 z m -168.47133,-6.01927 -1.04588,-1.12448 1.12447,1.04589 c 1.04576,0.97266 1.24607,1.20307 1.04589,1.20307 -0.0432,0 -0.54924,-0.50601 -1.12448,-1.12448 z M 150.1469,199.21193 c 0.191,-0.0764 0.4192,-0.067 0.50712,0.0209 0.0879,0.0879 -0.0684,0.15045 -0.34727,0.13896 -0.30822,-0.0127 -0.37092,-0.0754 -0.15985,-0.15985 z m 2.16628,-1.27447 c 0.49365,-0.50932 0.95708,-0.92604 1.02984,-0.92604 0.0728,0 -0.27161,0.41672 -0.76526,0.92604 -0.49366,0.50932 -0.95709,0.92604 -1.02985,0.92604 -0.0728,0 0.27161,-0.41672 0.76527,-0.92604 z m -55.03334,-4.99469 c 0,-0.0549 0.20836,-0.2633 0.463021,-0.46302 0.419644,-0.32911 0.429003,-0.31975 0.09989,0.0999 -0.345644,0.44073 -0.562916,0.58088 -0.562916,0.36312 z M -101.206,192.57988 c 3.102113,-0.0423 8.102738,-0.0423 11.112499,1.2e-4 3.009762,0.0424 0.471669,0.0771 -5.640206,0.077 -6.111873,-6e-5 -8.574403,-0.0348 -5.472293,-0.0771 z m 537.62028,0.006 c 0.47555,-0.0589 1.18992,-0.0577 1.5875,0.003 0.39757,0.0604 0.008,0.10855 -0.86464,0.10707 -0.87312,-0.001 -1.19841,-0.0509 -0.72286,-0.10977 z m -306.78913,-0.53015 c 0.54571,-0.0571 1.43868,-0.0571 1.98438,0 0.5457,0.0571 0.0992,0.10378 -0.99219,0.10378 -1.0914,0 -1.53789,-0.0467 -0.99219,-0.10378 z m 275.36512,0.0928 c 0,-0.0549 0.20836,-0.2633 0.46302,-0.46302 0.41964,-0.32911 0.429,-0.31975 0.0999,0.0999 -0.34564,0.44073 -0.56291,0.58088 -0.56291,0.36312 z m 2.11666,-2.11666 c 0,-0.055 0.20836,-0.26331 0.46302,-0.46302 0.41965,-0.32911 0.42901,-0.31975 0.0999,0.0999 -0.34564,0.44073 -0.56292,0.58089 -0.56292,0.36313 z M 100.71942,189.5027 c 0,-0.0549 0.20836,-0.2633 0.46302,-0.46302 0.41965,-0.32911 0.42901,-0.31975 0.0999,0.0999 -0.34564,0.44073 -0.56292,0.58089 -0.56292,0.36313 z m 200.68647,-7.30844 c -2.17918,-2.18281 -3.9026,-3.96875 -3.82984,-3.96875 0.0728,0 1.91525,1.78594 4.09442,3.96875 2.17918,2.18281 3.9026,3.96875 3.82984,3.96875 -0.0728,0 -1.91525,-1.78594 -4.09442,-3.96875 z m -393.216629,-2.84423 c 8.269508,-0.0388 21.723571,-0.0388 29.897918,1e-5 8.174347,0.0388 1.408386,0.0706 -15.035469,0.0706 -16.443855,-1e-5 -23.13196,-0.0318 -14.862449,-0.0706 z m 83.3383165,6.9e-4 c 1.7180802,-0.0462 4.4565178,-0.046 6.0854169,3.3e-4 1.62889906,0.0463 0.2231971,0.0841 -3.1237822,0.0839 -3.3469792,-1.9e-4 -4.6797152,-0.0381 -2.9616347,-0.0843 z m 53.9750015,0 c 1.71808,-0.0462 4.456518,-0.046 6.085417,3.3e-4 1.628899,0.0463 0.223197,0.0841 -3.123782,0.0839 -3.346979,-1.9e-4 -4.679715,-0.0381 -2.961635,-0.0843 z m 305.828751,4.2e-4 c 1.55628,-0.0467 4.17566,-0.0469 5.82083,-3.6e-4 1.64518,0.0465 0.37186,0.0847 -2.8296,0.0849 -3.20146,2e-4 -4.54751,-0.0378 -2.99123,-0.0845 z M 128.03765,178.3082 c 0.25467,-0.0666 0.67138,-0.0666 0.92605,0 0.25466,0.0666 0.0463,0.121 -0.46303,0.121 -0.50932,0 -0.71768,-0.0545 -0.46302,-0.121 z m 3.83955,-0.005 c 0.32912,-0.0633 0.80537,-0.0609 1.05833,0.005 0.25297,0.0662 -0.0163,0.11801 -0.5984,0.11507 -0.58208,-0.003 -0.78905,-0.0571 -0.45993,-0.12041 z m 303.07713,0.005 c 0.25466,-0.0666 0.67138,-0.0666 0.92604,0 0.25466,0.0666 0.0463,0.121 -0.46302,0.121 -0.50932,0 -0.71768,-0.0545 -0.46302,-0.121 z m 3.43958,0 c 0.25466,-0.0666 0.67138,-0.0666 0.92605,0 0.25466,0.0666 0.0463,0.121 -0.46303,0.121 -0.50932,0 -0.71768,-0.0545 -0.46302,-0.121 z M 146.70732,99.728593 c 0.19099,-0.07643 0.4192,-0.06703 0.50711,0.02089 0.0879,0.08792 -0.0683,0.150453 -0.34726,0.138964 -0.30823,-0.0127 -0.37092,-0.07539 -0.15985,-0.159852 z m 3.175,-0.264583 c 0.19099,-0.07643 0.4192,-0.06703 0.50711,0.02089 0.0879,0.08792 -0.0684,0.150453 -0.34726,0.138964 -0.30823,-0.0127 -0.37092,-0.07539 -0.15985,-0.159852 z m 67.73333,0 c 0.191,-0.07643 0.4192,-0.06703 0.50712,0.02089 0.0879,0.08792 -0.0684,0.150453 -0.34727,0.138964 -0.30822,-0.0127 -0.37092,-0.07539 -0.15985,-0.159852 z m -64.02917,-0.264584 c 0.191,-0.07643 0.4192,-0.06703 0.50712,0.02089 0.0879,0.08792 -0.0684,0.150453 -0.34726,0.138965 -0.30823,-0.0127 -0.37092,-0.07539 -0.15986,-0.159853 z m 60.325,0 c 0.191,-0.07643 0.4192,-0.06703 0.50712,0.02089 0.0879,0.08792 -0.0684,0.150453 -0.34726,0.138965 -0.30823,-0.0127 -0.37092,-0.07539 -0.15986,-0.159853 z M 157.5387,98.940355 c 0.1819,-0.0734 0.47955,-0.0734 0.66145,0 0.18191,0.0734 0.0331,0.133452 -0.33072,0.133452 -0.36381,0 -0.51263,-0.06005 -0.33073,-0.133452 z m 52.12291,0 c 0.18191,-0.0734 0.47956,-0.0734 0.66146,0 0.1819,0.0734 0.0331,0.133452 -0.33073,0.133452 -0.3638,0 -0.51263,-0.06005 -0.33073,-0.133452 z m -47.22309,-0.272709 c 0.25743,-0.06708 0.61462,-0.06267 0.79375,0.0098 0.17914,0.07248 -0.0315,0.127362 -0.46805,0.12197 -0.43657,-0.0054 -0.58313,-0.06469 -0.3257,-0.131774 z m 42.06876,0 c 0.25743,-0.06708 0.61461,-0.06267 0.79375,0.0098 0.17913,0.07248 -0.0315,0.127362 -0.46806,0.12197 -0.43656,-0.0054 -0.58313,-0.06469 -0.32569,-0.131774 z m -35.5915,-0.267954 c 0.32742,-0.06307 0.8632,-0.06307 1.19063,0 0.32742,0.06306 0.0595,0.114662 -0.59532,0.114662 -0.65484,0 -0.92273,-0.0516 -0.59531,-0.114662 z m 28.575,0 c 0.32742,-0.06307 0.8632,-0.06307 1.19063,0 0.32742,0.06306 0.0595,0.114662 -0.59532,0.114662 -0.65484,0 -0.92273,-0.0516 -0.59531,-0.114662 z m 19.57917,-6.603087 c 0.1819,-0.0734 0.47956,-0.0734 0.66146,0 0.1819,0.0734 0.0331,0.133452 -0.33073,0.133452 -0.3638,0 -0.51263,-0.06005 -0.33073,-0.133452 z m -64.02917,-0.264583 c 0.1819,-0.0734 0.47956,-0.0734 0.66146,0 0.1819,0.0734 0.0331,0.133452 -0.33073,0.133452 -0.3638,0 -0.51263,-0.06005 -0.33073,-0.133452 z m 59.79583,0 c 0.18191,-0.0734 0.47956,-0.0734 0.66146,0 0.1819,0.0734 0.0331,0.133452 -0.33073,0.133452 -0.3638,0 -0.51263,-0.06005 -0.33073,-0.133452 z m -55.16059,-0.272709 c 0.25743,-0.06708 0.61462,-0.06267 0.79375,0.0098 0.17914,0.07248 -0.0315,0.127362 -0.46805,0.12197 -0.43657,-0.0054 -0.58313,-0.06469 -0.3257,-0.131774 z m 49.74167,0 c 0.25743,-0.06708 0.61462,-0.06267 0.79375,0.0098 0.17913,0.07248 -0.0315,0.127362 -0.46805,0.12197 -0.43657,-0.0054 -0.58313,-0.06469 -0.3257,-0.131774 z m 12.2153,-0.676542 -0.7771,-0.859896 0.85989,0.777105 c 0.80155,0.724372 0.98151,0.942687 0.77711,0.942687 -0.0455,0 -0.43249,-0.386953 -0.8599,-0.859896 z m -55.74121,0.408183 c 0.32912,-0.06329 0.80537,-0.06088 1.05833,0.0053 0.25297,0.06622 -0.0163,0.118004 -0.59839,0.115067 -0.58209,-0.0029 -0.78906,-0.05712 -0.45994,-0.120406 z m 35.98025,4.04e-4 c 0.32742,-0.06306 0.8632,-0.06306 1.19063,0 0.32742,0.06306 0.0595,0.114662 -0.59532,0.114662 -0.65484,0 -0.92273,-0.0516 -0.59531,-0.114662 z m -21.56354,-0.275729 c 2.14643,-0.04447 5.65877,-0.04447 7.80521,0 2.14643,0.04447 0.39026,0.08086 -3.90261,0.08086 -4.29286,0 -6.04903,-0.03639 -3.9026,-0.08086 z m 42.76261,-5.556816 c -0.32911,-0.419644 -0.31975,-0.429003 0.0999,-0.09989 0.44073,0.345643 0.58089,0.562915 0.36313,0.562915 -0.0549,0 -0.26331,-0.208359 -0.46302,-0.46302 z m -2.11667,-2.116667 c -0.32911,-0.419644 -0.31975,-0.429002 0.0999,-0.0999 0.44073,0.345644 0.58089,0.562916 0.36313,0.562916 -0.0549,0 -0.2633,-0.20836 -0.46302,-0.463021 z M 167.6094,74.064009 c 0.191,-0.07643 0.4192,-0.06703 0.50712,0.02089 0.0879,0.08792 -0.0684,0.150453 -0.34727,0.138965 -0.30822,-0.0127 -0.37092,-0.07539 -0.15985,-0.159853 z m -3.45612,-0.259071 c 0.1819,-0.0734 0.47956,-0.0734 0.66146,0 0.1819,0.0734 0.0331,0.133452 -0.33073,0.133452 -0.3638,0 -0.51263,-0.06005 -0.33073,-0.133452 z m -4.23333,-0.264583 c 0.1819,-0.0734 0.47955,-0.0734 0.66145,0 0.18191,0.0734 0.0331,0.133452 -0.33072,0.133452 -0.36381,0 -0.51263,-0.06005 -0.33073,-0.133452 z m -6.61459,-0.27608 c 0.32742,-0.06306 0.86321,-0.06306 1.19063,0 0.32742,0.06306 0.0595,0.114662 -0.59531,0.114662 -0.65485,0 -0.92274,-0.0516 -0.59532,-0.114662 z m 7.68946,-7.137766 c 0.19099,-0.07643 0.4192,-0.06703 0.50711,0.02089 0.0879,0.08792 -0.0683,0.150453 -0.34726,0.138965 -0.30823,-0.0127 -0.37092,-0.07539 -0.15985,-0.159853 z m -3.96875,-0.264583 c 0.19099,-0.07643 0.4192,-0.06703 0.50711,0.02089 0.0879,0.08792 -0.0683,0.150453 -0.34726,0.138964 -0.30823,-0.01269 -0.37092,-0.07539 -0.15985,-0.159852 z m -5.17088,-0.267197 c 0.25743,-0.06708 0.61462,-0.06267 0.79375,0.0098 0.17913,0.07248 -0.0315,0.127362 -0.46806,0.12197 -0.43656,-0.0054 -0.58312,-0.06469 -0.32569,-0.131774 z m 87.62155,-36.659875 -0.7771,-0.859896 0.85989,0.777105 c 0.80155,0.724371 0.98151,0.942686 0.77711,0.942686 -0.0455,0 -0.43249,-0.386953 -0.8599,-0.859895 z"
         id="path5471" /><path
         style="display:inline;fill:#000000"
         d="m 198.35068,325.41726 c -5.79655,-0.96042 -10.58823,-5.27311 -12.03646,-10.83322 -0.50396,-1.93484 -0.50803,-5.35271 -0.009,-7.22937 1.38721,-5.21267 5.63974,-9.32745 10.98673,-10.63083 2.10178,-0.51232 6.65067,-0.44075 8.59896,0.13531 6.55934,1.93941 10.71563,7.36491 10.71563,13.98788 0,4.19217 -1.31627,7.40483 -4.20278,10.25785 -2.04545,2.02172 -4.21825,3.24267 -7.06742,3.97137 -1.90669,0.48765 -5.14654,0.6458 -6.98605,0.34101 z m 7.49411,-5.33195 c 2.01894,-0.99392 3.62884,-2.6584 4.6476,-4.80514 0.60814,-1.2815 0.69058,-1.78684 0.69058,-4.23333 0,-2.50152 -0.0757,-2.94205 -0.76046,-4.42447 -0.93257,-2.01895 -2.9988,-4.053 -5.12582,-5.04598 -1.31389,-0.61337 -1.86582,-0.71093 -4.0356,-0.71328 -2.27399,-0.002 -2.68125,0.0767 -4.27335,0.83104 -0.96789,0.45857 -2.25957,1.33353 -2.8704,1.94435 -0.61082,0.61083 -1.48578,1.90251 -1.94435,2.8704 -0.7624,1.60917 -0.83377,1.9863 -0.83377,4.40564 0,2.42012 0.0705,2.79255 0.82687,4.36563 1.876,3.90182 5.22019,5.88886 9.65773,5.73838 1.94675,-0.066 2.53824,-0.2033 4.02097,-0.93324 z m 74.79131,5.09253 c -1.67681,-0.44508 -3.73022,-1.3975 -4.93866,-2.29068 l -0.83761,-0.6191 1.36824,-1.87845 1.36825,-1.87846 1.05687,0.75732 c 2.57171,1.8428 6.21724,2.39158 8.51097,1.28121 2.33081,-1.12833 4.31985,-4.48674 4.31985,-7.29388 v -0.91029 l -1.23643,0.94409 c -1.79297,1.36903 -3.60156,1.81858 -6.71356,1.66873 -2.14129,-0.10311 -2.83697,-0.25395 -4.25049,-0.92161 -3.40461,-1.60813 -5.00689,-4.16615 -4.98643,-7.96075 0.0296,-5.48815 3.74731,-9.18911 9.79537,-9.75122 6.12642,-0.56939 10.89267,2.79348 12.27581,8.66129 0.6014,2.5514 0.53956,7.83523 -0.12231,10.45024 -1.34233,5.30347 -4.5903,8.85968 -9.02563,9.88221 -1.65149,0.38073 -4.87974,0.31177 -6.58424,-0.14065 z m 7.17564,-14.53913 c 4.10507,-1.44836 4.85948,-6.65361 1.31091,-9.04499 -2.58737,-1.74364 -7.00481,-1.30585 -8.71106,0.86331 -1.3585,1.72704 -1.45421,4.68379 -0.20465,6.32204 1.54317,2.0232 4.84958,2.83174 7.6048,1.85964 z m 29.69317,14.67055 c -2.98358,-0.49846 -5.70812,-1.94025 -7.04318,-3.72715 -0.97912,-1.3105 -1.31808,-2.672 -1.20799,-4.85213 0.13971,-2.76664 1.05659,-3.98915 4.56005,-6.08002 0.3802,-0.2269 0.26431,-0.39646 -0.81378,-1.19062 -1.59671,-1.1762 -2.35997,-2.31583 -2.72337,-4.0663 -0.60193,-2.89949 0.67364,-5.58693 3.4432,-7.25433 2.06368,-1.24242 3.83368,-1.68597 6.70456,-1.68008 5.24957,0.0108 9.16672,2.46461 9.9489,6.23232 0.61066,2.94154 -0.5513,5.43831 -3.39767,7.30081 -0.6085,0.39816 -0.60303,0.40553 1.11222,1.49905 2.43809,1.55436 3.1897,2.77674 3.30814,5.38022 0.0749,1.64579 -0.018,2.28266 -0.49465,3.39057 -1.64854,3.83215 -7.49236,6.03405 -13.39643,5.04766 z m 6.69901,-4.68246 c 2.91655,-1.51399 3.21857,-4.755 0.6186,-6.6384 -2.532,-1.83418 -7.33002,-1.67633 -9.49035,0.31221 -0.71547,0.65858 -1.35857,2.00734 -1.35857,2.8493 0,1.53565 1.39063,3.11253 3.40917,3.86576 1.48638,0.55465 5.43747,0.3294 6.82115,-0.38887 z m -0.84785,-12.58625 c 2.90954,-1.57009 3.0309,-5.07353 0.23593,-6.81102 -0.86694,-0.53893 -1.35588,-0.63374 -3.2684,-0.63374 -1.91253,0 -2.40147,0.0948 -3.2684,0.63374 -3.42914,2.13172 -2.27189,6.62529 1.92037,7.45676 1.37064,0.27184 3.17227,0.006 4.3805,-0.64574 z m 27.02449,17.13664 c -2.05608,-0.4975 -4.53047,-1.73472 -5.91561,-2.95786 l -1.11663,-0.98604 1.53156,-1.68813 1.53157,-1.68814 1.77584,1.21579 c 0.9767,0.66868 2.39136,1.39857 3.14367,1.62199 4.61359,1.37008 8.66298,-0.70021 8.67579,-4.43558 0.007,-1.9534 -0.85722,-3.23624 -2.90607,-4.31527 -1.36147,-0.71702 -5.44787,-0.6721 -7.33147,0.0806 l -1.37834,0.55079 -1.46593,-0.91694 c -1.43788,-0.8994 -1.46594,-0.9406 -1.46679,-2.15332 -10e-4,-1.73506 0.52409,-10.84659 0.68525,-11.88586 l 0.13334,-0.85989 h 8.71926 8.71927 v 2.11666 2.11667 h -6.58913 -6.58912 l -0.17045,2.84427 c -0.0937,1.56435 -0.22892,3.12166 -0.30038,3.46069 -0.10464,0.49644 -0.0378,0.5889 0.34342,0.47499 3.09561,-0.92496 6.57665,-0.88389 9.19123,0.10845 1.97861,0.75096 3.85733,2.47695 4.6803,4.29983 0.51481,1.1403 0.62213,1.81527 0.61899,3.89302 -0.003,2.14912 -0.1032,2.72452 -0.68942,3.96875 -0.78791,1.67234 -2.12952,3.13446 -3.74459,4.08095 -2.36027,1.38321 -6.80449,1.84747 -10.08556,1.05357 z M 5.7340042,310.91454 v -14.1552 h 2.7775485 2.7775483 l 4.408772,6.61458 c 2.424825,3.63802 4.484404,6.61458 4.576842,6.61458 0.09244,0 2.176403,-2.97656 4.631031,-6.61458 l 4.462962,-6.61458 h 2.734732 2.734732 v 14.1552 14.15521 H 32.32463 29.811088 v -10.05416 c 0,-5.5298 -0.0893,-10.05226 -0.198437,-10.04993 -0.109141,0.002 -2.264348,2.98666 -4.789348,6.63184 -2.525001,3.64517 -4.621017,6.59006 -4.657813,6.54419 -0.03679,-0.0459 -2.138073,-3.05958 -4.669506,-6.69715 l -4.602605,-6.61375 -0.06929,10.11948 -0.06929,10.11948 H 8.2444021 5.7340042 Z m 44.7145848,0 v -14.1552 h 2.513542 2.513541 v 14.1552 14.15521 h -2.513541 -2.513542 z m 20.637501,0 v -14.1552 h 2.645833 2.645833 v 11.90625 11.90625 h 7.805209 7.805209 v 2.24895 2.24896 H 81.537132 71.08609 Z m 31.48542,14.06357 c 0,-0.0504 0.17472,-0.44187 0.38826,-0.86994 0.39936,-0.80052 2.44513,-5.2899 5.16826,-11.34154 0.85127,-1.89177 2.84927,-6.29709 4.44002,-9.78959 l 2.89227,-6.35 2.37217,-0.0755 2.37218,-0.0754 0.94884,2.05983 c 0.52187,1.1329 2.97328,6.52467 5.44757,11.9817 2.4743,5.45703 4.98003,10.96367 5.5683,12.23698 l 1.06957,2.3151 h -2.7073 -2.7073 l -1.46292,-3.37343 -1.46292,-3.37344 h -7.08366 -7.08367 l -1.47124,3.37344 -1.47124,3.37343 h -2.6086 c -1.43472,0 -2.60859,-0.0412 -2.60859,-0.0916 z m 20.37291,-11.10664 c 0,-0.30377 -4.97295,-11.07708 -5.13004,-11.1136 -0.16484,-0.0383 -1.20171,2.19654 -4.67426,10.0749 l -0.49564,1.12448 h 5.14997 c 2.83249,0 5.14997,-0.0386 5.14997,-0.0858 z m 23.28334,-2.95693 v -14.1552 l 2.3151,0.003 2.31511,0.003 7.9375,9.85317 7.9375,9.85318 0.0694,-9.85573 0.0694,-9.85572 h 2.51032 2.51032 v 14.1552 14.15521 h -2.21772 -2.21773 l -7.99889,-9.92489 c -4.39938,-5.4587 -8.10438,-9.9901 -8.23331,-10.06979 -0.13462,-0.0832 -0.23443,4.14261 -0.23443,9.9249 v 10.06978 h -2.38125 -2.38125 z m 108.47917,2.36342 c 0,-11.10713 -0.0269,-11.78367 -0.46302,-11.652 -2.00448,0.60516 -4.62904,1.24201 -4.72463,1.14642 -0.12962,-0.12961 -1.15379,-3.73449 -1.07796,-3.79419 0.0263,-0.0207 1.85058,-0.58801 4.05386,-1.26058 2.89428,-0.88351 4.45452,-1.22286 5.62239,-1.22286 h 1.61644 v 14.2875 14.2875 h -2.51354 -2.51354 z M 14.729838,257.3295 c -12.4221126,-2.20597 -22.6063063,-10.60857 -26.287607,-21.68892 -1.646923,-4.95707 -1.578574,-3.7463 -1.687266,-29.88916 -0.05473,-13.16483 -0.03053,-24.2109 0.05378,-24.54684 0.08431,-0.33593 0.388395,-0.84589 0.675736,-1.13323 0.492156,-0.49215 0.903441,-0.52243 7.0960128,-0.52243 6.34620042,0 6.5910104,0.0193 7.0776044,0.55678 0.4855798,0.53641 0.5091041,1.42977 0.6427168,24.40782 0.1553828,26.72197 0.02202,24.91205 2.1568664,29.2717 2.2048291,4.50256 6.6588026,7.94635 11.9869396,9.26822 2.044723,0.50728 2.856818,0.57123 5.820834,0.45837 5.684447,-0.21646 9.480498,-1.80506 13.148231,-5.5024 1.633037,-1.64621 2.264648,-2.53199 3.22521,-4.52307 2.072321,-4.29557 2.020106,-3.5318 2.020106,-29.54892 0,-22.86201 0.0032,-22.99823 0.548371,-23.69136 l 0.54837,-0.69714 h 6.607406 6.607407 l 0.660945,0.66094 0.660945,0.66095 -0.09305,24.54062 c -0.100732,26.5673 -0.03749,25.34712 -1.552875,29.96118 -2.527678,7.69629 -8.243444,14.31816 -15.853147,18.36629 -2.997819,1.59475 -7.951083,3.20897 -11.397497,3.71434 -3.762808,0.55175 -9.159112,0.49904 -12.666044,-0.12374 z m 108.883302,0.13326 c -3.38941,-0.55136 -6.53124,-1.36889 -9.21223,-2.39711 -13.55979,-5.20044 -22.771049,-15.67329 -25.773345,-29.30331 -0.67624,-3.07004 -0.677175,-11.7889 -0.0016,-14.99259 2.951734,-13.99774 13.248675,-25.34426 27.252325,-30.03017 9.24584,-3.09386 20.06173,-3.14995 29.01453,-0.15049 2.4016,0.80461 6.35067,2.67154 8.32044,3.9335 2.18244,1.39822 5.92397,4.29065 6.08162,4.70145 0.54297,1.41497 0.27826,1.80774 -3.98422,5.91184 -4.8718,4.69077 -4.90128,4.70203 -7.34441,2.8049 -3.10436,-2.41059 -7.48401,-4.40082 -11.70153,-5.31749 -2.52271,-0.54831 -8.25488,-0.62753 -10.54216,-0.14569 -8.40986,1.77161 -14.87203,6.62825 -18.53045,13.92653 -2.14896,4.28703 -2.59309,6.21797 -2.61678,11.37708 -0.0219,4.7792 0.38429,6.84292 2.07909,10.56191 5.60912,12.30839 20.21302,18.26749 33.38543,13.62287 2.95178,-1.04081 4.36041,-1.75326 7.33651,-3.71064 1.30157,-0.85604 2.65428,-1.55643 3.00604,-1.55643 0.68803,0 1.81393,0.95681 6.36256,5.40703 2.47033,2.41688 2.71198,2.74031 2.71198,3.6297 0,0.84633 -0.18505,1.13917 -1.38907,2.19829 -4.98427,4.38443 -11.61904,7.60181 -18.85156,9.14162 -3.52264,0.74997 -12.06929,0.96206 -15.60316,0.3872 z m 208.73013,-25.0082 -24.58738,-25.41102 -0.13229,24.37612 -0.13229,24.37611 -0.62463,0.50574 c -0.57526,0.46578 -1.1146,0.50574 -6.82505,0.50574 h -6.20042 l -0.64943,-0.64943 -0.64943,-0.64943 v -37.93362 -37.93361 l 0.67434,-0.63351 c 0.54309,-0.51021 1.02513,-0.65334 2.47654,-0.73535 l 1.80219,-0.10183 24.64326,24.53523 24.64325,24.53523 v -23.19658 -23.19657 l 0.64943,-0.64943 0.64944,-0.64943 h 6.36202 c 5.94841,0 6.39547,0.0334 6.87644,0.51441 0.28292,0.28292 0.58497,0.908 0.67122,1.38906 0.0862,0.48106 0.12265,17.64323 0.0809,38.13816 l -0.0759,37.2635 -0.62462,0.50577 c -0.48592,0.39345 -1.04827,0.50577 -2.53241,0.50577 h -1.90778 z m 98.047,24.99567 c -17.88264,-2.83186 -31.46988,-15.3398 -34.68603,-31.93076 -2.44008,-12.58746 1.5764,-25.51825 10.78738,-34.72923 7.23462,-7.23462 16.67057,-11.46806 27.34151,-12.26677 10.02468,-0.75034 19.71277,1.7584 27.9014,7.2251 12.08886,8.07047 18.73262,21.48593 17.58902,35.51675 -1.44146,17.68526 -14.56525,31.84489 -33.19057,35.81024 -3.56324,0.75861 -12.04365,0.96044 -15.74271,0.37467 z m 13.80221,-14.64602 c 9.46784,-2.56765 16.8101,-9.52753 19.28022,-18.27613 0.71927,-2.5475 0.97092,-7.23031 0.53407,-9.93833 -1.57625,-9.7711 -9.10826,-17.95005 -19.2367,-20.88898 -12.51265,-3.63074 -26.25832,2.27332 -32.03959,13.76169 -1.69303,3.36434 -2.24774,5.71448 -2.37313,10.05417 -0.10367,3.58826 -0.0517,4.2128 0.54252,6.51432 2.46191,9.53601 10.26769,16.77075 20.54873,19.04549 3.08815,0.68327 9.74497,0.54107 12.74388,-0.27223 z m -528.071329,13.36452 -0.742358,-0.63851 -0.06933,-31.50836 -0.06933,-31.50836 h -11.324007 c -11.030396,0 -11.339016,-0.014 -11.903056,-0.53947 -0.55893,-0.52072 -0.57906,-0.72604 -0.57906,-5.90701 0,-5.26852 0.0113,-5.37814 0.61237,-5.94282 l 0.61236,-0.57528 h 30.45697 30.456974 l 0.54837,0.69714 c 0.511593,0.65038 0.54837,1.03838 0.54837,5.78515 0,4.74018 -0.03734,5.13548 -0.546169,5.78235 l -0.54617,0.69435 -11.426226,0.0689 -11.426227,0.0689 -0.06722,31.53321 -0.06722,31.5332 -0.696066,0.54753 c -0.658629,0.51807 -1.027765,0.54752 -6.863339,0.54752 -6.137875,0 -6.170812,-0.003 -6.909632,-0.63852 z m 269.404979,0.0682 c -0.59152,-0.4653 -0.69942,-0.72115 -0.58577,-1.38907 0.0766,-0.45029 2.36538,-5.34309 5.08614,-10.87288 2.72076,-5.52979 6.85277,-13.9237 9.18226,-18.65313 2.32948,-4.72942 5.27771,-10.74208 6.55162,-13.36145 1.27391,-2.61938 5.02279,-10.23938 8.33085,-16.93334 3.30805,-6.69396 6.40249,-13.00658 6.87652,-14.02804 0.47403,-1.02147 1.06694,-2.02741 1.31759,-2.23543 0.48628,-0.40357 2.85709,-0.53975 3.66085,-0.21027 0.43819,0.17962 1.47332,2.21078 7.99092,15.67999 1.05624,2.18282 3.10931,6.40953 4.56237,9.39271 1.45307,2.98318 5.8297,11.9724 9.72583,19.97604 3.89614,8.00365 8.45021,17.35006 10.12015,20.7698 5.34075,10.93689 5.32154,10.88368 4.29897,11.90625 -0.4996,0.4996 -0.88195,0.52916 -6.84349,0.52916 -6.11857,0 -6.33742,-0.0182 -7.05959,-0.58623 -0.50947,-0.40075 -1.73488,-2.61913 -3.87305,-7.01146 l -3.12777,-6.42522 h -17.67475 -17.67476 l -3.19354,6.54843 c -2.61292,5.35787 -3.33922,6.63262 -3.99485,7.01146 -0.69962,0.40426 -1.57225,0.46302 -6.87637,0.46302 -5.82063,0 -6.10542,-0.0239 -6.80013,-0.57034 z m 50.39538,-25.74055 c 0,-0.0644 -1.13664,-2.47544 -2.52587,-5.35781 -1.38922,-2.88237 -4.03372,-8.36761 -5.87666,-12.18942 -1.84294,-3.82182 -3.45838,-6.91289 -3.58987,-6.86906 -0.21557,0.0718 -1.83205,3.34949 -5.58109,11.31639 -0.71588,1.5213 -2.29652,4.84107 -3.51253,7.37726 -1.21601,2.5362 -2.2803,4.88768 -2.36509,5.22552 l -0.15417,0.61426 h 11.80264 c 6.49145,0 11.80264,-0.0527 11.80264,-0.11714 z M 137.60523,140.7939 c -4.3806,-0.95904 -7.64392,-3.80942 -9.39771,-8.20852 l -0.63289,-1.5875 -0.0741,-46.963547 c -0.0826,-52.354139 -0.19005,-49.112248 1.73525,-52.372536 1.14246,-1.934616 3.28602,-3.997765 5.11821,-4.926207 2.99116,-1.515734 0.26083,-1.438757 51.03212,-1.438757 51.46281,0 48.11026,-0.106812 51.38204,1.637025 1.81778,0.968868 4.30514,3.523334 5.20263,5.343002 1.41796,2.874913 1.35256,0.422826 1.35594,50.841989 0.003,41.237341 -0.0454,47.028111 -0.40244,48.398941 -1.07537,4.12862 -4.03098,7.34438 -8.21473,8.93778 l -1.56614,0.59647 -46.96355,0.0473 c -38.28509,0.0385 -47.26125,-0.0179 -48.57461,-0.30542 z m 95.09313,-9.14261 c 0.52808,-0.32196 1.08247,-0.9977 1.39128,-1.69582 0.50258,-1.13616 0.51194,-2.12936 0.44502,-47.201692 -0.0684,-46.035767 -0.0684,-46.041192 -0.61387,-46.771741 -0.30004,-0.401848 -0.8743,-0.976114 -1.27615,-1.276148 -0.73055,-0.545451 -0.73597,-0.545522 -46.77174,-0.613874 -45.07233,-0.06692 -46.06553,-0.05756 -47.20169,0.445021 -0.69813,0.308814 -1.37386,0.863197 -1.69582,1.391277 -0.5319,0.87242 -0.53523,1.167451 -0.53448,47.31227 7.3e-4,45.042927 0.0157,46.457037 0.49941,47.190737 0.27427,0.416 0.83903,0.98077 1.25503,1.25503 0.7337,0.48372 2.14782,0.49869 47.19074,0.49942 46.14482,7.5e-4 46.43985,-0.003 47.31227,-0.53448 z M 145.28094,99.210312 c 0.0914,-0.415903 0.55955,-2.184937 1.04042,-3.931187 l 0.8743,-3.175 1.96345,-0.184937 c 6.18261,-0.58234 12.70601,-0.80065 27.76032,-0.929018 16.77429,-0.143034 29.22441,0.117923 39.42291,0.826312 2.54662,0.176889 4.67759,0.286442 4.73549,0.243453 0.0579,-0.04299 -0.70799,-0.856188 -1.70198,-1.807109 -10.66472,-10.202667 -34.26527,-16.171535 -67.12882,-16.977699 -3.89268,-0.09549 -7.0776,-0.224161 -7.0776,-0.285934 0,-0.06177 0.44,-1.783956 0.97779,-3.827072 l 0.9778,-3.714758 4.11543,0.178987 c 42.02341,1.827661 66.94471,10.450458 73.9589,25.589854 l 0.60934,1.315208 -1.61878,3.709914 -1.61878,3.709915 -1.06387,-0.147042 c -1.67395,-0.231361 -12.39308,-0.92426 -18.79096,-1.214673 -7.54397,-0.342436 -30.3648,-0.34017 -37.83542,0.0038 -6.39553,0.294433 -16.46469,0.953671 -18.48198,1.210034 l -1.28408,0.163183 z"
         id="path5470" /></g></g></svg>
